<?xml version="1.0" encoding="UTF-8"?>
<svg width="712px" height="407px" viewBox="0 0 712 407" version="1.1" xmlns="http://www.w3.org/2000/svg" xmlns:xlink="http://www.w3.org/1999/xlink">
    <!-- Generator: Sketch 42 (36781) - http://www.bohemiancoding.com/sketch -->
    <title>grue</title>
    <desc>Created with Sketch.</desc>
    <defs>
        <polygon id="path-1" points="0 383.103344 313.553341 383.103344 313.553341 0.0881608944 0 0.0881608944"></polygon>
        <polygon id="path-3" points="-3.33955079e-13 0.0555195815 -3.33955079e-13 16.143217 15.9175829 16.143217 15.9175829 0.0555195815 -3.33955086e-13 0.0555195815"></polygon>
        <polygon id="path-5" points="0.0126551073 0.400943284 0.626980707 0.400943284 0.626980707 0.219952239 0.0126551073 0.219952239 0.0126551073 0.400943284"></polygon>
        <polygon id="path-7" points="0.184236247 0.34534209 0.798561847 0.34534209 0.798561847 0.275553433 0.184236247 0.275553433 0.184236247 0.34534209"></polygon>
        <polygon id="path-9" points="0.245760956 0.412398806 0.860086555 0.412398806 0.860086555 0.208496716 0.245760956 0.208496716 0.245760956 0.412398806"></polygon>
        <polygon id="path-11" points="0.115693343 0.333389851 0.730018943 0.333389851 0.730018943 0.287505672 0.115693343 0.287505672 0.115693343 0.333389851"></polygon>
        <polygon id="path-13" points="0.190359026 0.50966209 0.804684625 0.50966209 0.804684625 0.111233433 0.190359026 0.111233433"></polygon>
        <polygon id="path-15" points="0.0899167902 0.512921791 0.70424239 0.512921791 0.70424239 0.107973731 0.0899167902 0.107973731 0.0899167902 0.512921791"></polygon>
        <polygon id="path-17" points="0.0169246703 0.534218507 0.63125027 0.534218507 0.63125027 0.0866770149 0.0169246703 0.0866770149"></polygon>
        <polygon id="path-19" points="0.0638489073 0.328267463 0.678174507 0.328267463 0.678174507 0.29262806 0.0638489073 0.29262806 0.0638489073 0.328267463"></polygon>
        <polygon id="path-21" points="0.276047208 0.453222687 0.890372807 0.453222687 0.890372807 0.167672836 0.276047208 0.167672836 0.276047208 0.453222687"></polygon>
        <polygon id="path-23" points="0.0515112015 0.51993791 0.665836801 0.51993791 0.665836801 0.100957612 0.0515112015 0.100957612 0.0515112015 0.51993791"></polygon>
        <polygon id="path-25" points="0.144489381 0.376666269 0.75881498 0.376666269 0.75881498 0.244229254 0.144489381 0.244229254 0.144489381 0.376666269"></polygon>
        <polygon id="path-27" points="0.0434021036 0.346614925 0.657727703 0.346614925 0.657727703 0.274280597 0.0434021036 0.274280597 0.0434021036 0.346614925"></polygon>
        <polygon id="path-29" points="0.176741475 0.420128955 0.791067074 0.420128955 0.791067074 0.200766567 0.176741475 0.200766567 0.176741475 0.420128955"></polygon>
    </defs>
    <g id="Page-1" stroke="none" stroke-width="1" fill="none" fill-rule="evenodd">
        <g id="grue">
            <g transform="translate(158.000000, 0.000000)">
                <g id="Group" transform="translate(0.837297, 0.000000)">
                    <g id="Page-1">
                        <polygon id="Fill-56" fill="#3F5461" points="0 96.6823028 28.3954944 96.6823028 28.3954944 75.3944563 0 75.3944563"></polygon>
                        <path d="M192.373714,97.4293572 C182.911621,97.4293572 172.920598,96.2901722 162.508417,94.0171393 C148.091162,90.8697753 135.51629,86.0844015 127.506142,82.6242224 C118.822533,78.8731452 113.464058,75.8181457 113.41088,75.7877607 L114.432789,74.6063073 C114.485257,74.6363364 119.779458,77.6531948 128.381925,81.3667712 C136.312618,84.7904457 148.758674,89.5239445 163.014178,92.6317441 C188.083666,98.0970424 223.70649,99.4621573 251.046621,74.9285154 L252.361937,75.8989823 C245.911774,81.687058 238.669988,86.3745881 230.837571,89.8314227 C223.713503,92.9756557 215.944739,95.1711253 207.747183,96.3569194 C202.802673,97.0721388 197.670489,97.4293572 192.373714,97.4293572 Z" id="Fill-1" fill="#00233C"></path>
                        <mask id="mask-2" fill="white">
                            <use xlink:href="#path-1"></use>
                        </mask>
                        <g id="Clip-4"></g>
                        <polygon id="Fill-3" fill="#00233C" mask="url(#mask-2)" points="241.317539 102.836939 243.088026 102.836939 243.088026 84.6861513 241.317539 84.6861513"></polygon>
                        <polygon id="Fill-5" fill="#00233C" mask="url(#mask-2)" points="253.976525 102.836939 255.747012 102.836939 255.747012 84.6861513 253.976525 84.6861513"></polygon>
                        <path d="M191.096714,53.4283948 L71.5581791,15.4871018 C71.069866,15.3321026 70.8540681,14.9302131 71.0760816,14.5893616 C71.2980951,14.2485102 71.8740094,14.0979185 72.3621283,14.252851 L191.900663,52.194144 C192.388976,52.3490765 192.604774,52.7510327 192.382761,53.0918842 C192.220087,53.3417128 191.867157,53.4893661 191.498106,53.4893661 C191.363597,53.4893661 191.227048,53.4697992 191.096714,53.4283948 Z" id="Fill-6" fill="#00233C" mask="url(#mask-2)"></path>
                        <path d="M0.175596953,53.7946611 C-0.116622014,53.4944778 -0.0357992578,53.0697468 0.356186681,52.8458949 L66.8085148,14.9043958 C67.2004122,14.6806107 67.7550174,14.7425172 68.0473249,15.0427005 C68.3395439,15.3428838 68.2586326,15.7676148 67.8667352,15.9914667 L1.41440708,53.932899 C1.25559435,54.0236552 1.07004725,54.0673972 0.886005074,54.0673972 C0.616005726,54.0673972 0.349370304,53.9731683 0.175596953,53.7946611 Z" id="Fill-7" fill="#00233C" mask="url(#mask-2)"></path>
                        <path d="M66.5839414,40.358209 L82.245831,40.358209 L75.8339864,25.2793177 L66.5839414,25.2793177 L66.5839414,40.358209 Z M84.2991239,41.2452026 L64.7772215,41.2452026 L64.7772215,23.5053305 L76.6518604,23.5053305 L84.2991239,41.2452026 Z" id="Fill-13" fill="#FFFFFF" mask="url(#mask-2)"></path>
                        <polygon id="Fill-15" fill="#FFFFFF" mask="url(#mask-2)" points="203.623071 74.2794482 202.040875 73.4731654 212.930524 51.4563983 214.512721 52.2627695"></polygon>
                        <polygon id="Fill-16" fill="#FFFFFF" mask="url(#mask-2)" points="224.06088 74.7560304 212.930533 52.2628758 214.512729 51.456239 225.643076 73.9493936"></polygon>
                        <polygon id="Fill-17" fill="#FFFFFF" mask="url(#mask-2)" points="225.665641 74.7287147 224.083445 73.9224319 234.973094 51.9056648 236.55529 52.7120361"></polygon>
                        <polygon id="Fill-18" fill="#FFFFFF" mask="url(#mask-2)" points="246.10345 75.2053057 234.973103 52.7121511 236.555299 51.9055143 247.685646 74.398669"></polygon>
                        <polygon id="Fill-19" fill="#FFFFFF" mask="url(#mask-2)" points="247.708211 74.7287147 246.126015 73.9224319 257.015664 51.9056648 258.59786 52.7120361"></polygon>
                        <polygon id="Fill-20" fill="#FFFFFF" mask="url(#mask-2)" points="268.14602 75.2053057 257.015673 52.7121511 258.597869 51.9055143 269.728216 74.398669"></polygon>
                        <polygon id="Fill-21" fill="#FFFFFF" mask="url(#mask-2)" points="269.750781 74.7287147 268.168584 73.9224319 279.058234 51.9056648 280.64043 52.7120361"></polygon>
                        <polygon id="Fill-22" fill="#FFFFFF" mask="url(#mask-2)" points="181.580546 74.3692997 179.998261 73.563017 190.887822 51.5462498 192.470107 52.3526211"></polygon>
                        <polygon id="Fill-23" fill="#FFFFFF" mask="url(#mask-2)" points="202.01831 74.8458908 190.887963 52.3527361 192.470071 51.5460994 203.600507 74.039254"></polygon>
                        <polygon id="Fill-24" fill="#FFFFFF" mask="url(#mask-2)" points="159.537976 74.5490116 157.955692 73.7427289 168.845252 51.7259618 170.427537 52.532333"></polygon>
                        <polygon id="Fill-25" fill="#FFFFFF" mask="url(#mask-2)" points="179.975785 75.0255938 168.845349 52.5324392 170.427457 51.7258024 181.557893 74.218957"></polygon>
                        <polygon id="Fill-26" fill="#FFFFFF" mask="url(#mask-2)" points="137.495406 74.2794482 135.913122 73.4731654 146.802682 51.4563983 148.384967 52.2627695"></polygon>
                        <polygon id="Fill-27" fill="#FFFFFF" mask="url(#mask-2)" points="157.933215 74.7560304 146.80278 52.2628758 148.384887 51.456239 159.515323 73.9493936"></polygon>
                        <polygon id="Fill-28" fill="#FFFFFF" mask="url(#mask-2)" points="114.992103 74.9599865 113.41088 74.151668 124.672155 51.4553715 126.253377 52.2636901"></polygon>
                        <polygon id="Fill-29" fill="#FFFFFF" mask="url(#mask-2)" points="135.802121 74.7560304 124.671686 52.2628758 126.253793 51.456239 137.384229 73.9493936"></polygon>
                        <polygon id="Fill-30" fill="#FFFFFF" mask="url(#mask-2)" points="92.1252825 75.2010305 90.5389257 74.4029796 101.741774 51.4605231 103.328131 52.2585739"></polygon>
                        <polygon id="Fill-31" fill="#FFFFFF" mask="url(#mask-2)" points="112.874308 74.7560304 101.743872 52.2628758 103.32598 51.456239 114.456415 73.9493936"></polygon>
                        <polygon id="Fill-32" fill="#FFFFFF" mask="url(#mask-2)" points="47.917734 53.4893661 47.9173967 51.4435901 301.537608 51.4102378 301.537946 53.4560138"></polygon>
                        <path d="M291.846617,73.9034278 L311.232925,73.9034278 L301.538001,54.3110853 L291.846617,73.9034278 Z M312.668171,75.7005469 L0.885305764,75.7005469 C0.396385615,75.7005469 6.19670636e-05,75.2982464 6.19670636e-05,74.8019431 L6.19670636e-05,52.3380869 C6.19670636e-05,51.8420491 0.396120042,51.4398372 0.884774618,51.4394831 L48.9475817,51.4102732 L48.948644,53.2073923 L1.77054956,53.2360711 L1.77054956,73.9034278 L289.86553,73.9034278 L300.746681,51.9056029 C300.896819,51.6019081 301.202936,51.4102732 301.537735,51.4102732 C301.872446,51.4102732 302.178652,51.6019081 302.328878,51.9055143 L313.459225,74.398669 C313.597057,74.6772255 313.582805,75.00836 313.421691,75.2736393 C313.260399,75.5390071 312.975262,75.7005469 312.668171,75.7005469 L312.668171,75.7005469 Z" id="Fill-33" fill="#FFFFFF" mask="url(#mask-2)"></path>
                        <polygon id="Fill-34" fill="#FFFFFF" mask="url(#mask-2)" points="37.9054918 74.7287147 36.3232071 73.9224319 47.2127677 51.9056648 48.7950524 52.7120361"></polygon>
                        <polygon id="Fill-35" fill="#FFFFFF" mask="url(#mask-2)" points="58.3433005 75.2053057 47.2128651 52.7121511 48.7949727 51.9055143 59.9254081 74.398669"></polygon>
                        <polygon id="Fill-36" fill="#FFFFFF" mask="url(#mask-2)" points="14.7121051 74.7287147 13.1298204 73.9224319 24.019381 51.9056648 25.6016657 52.7120361"></polygon>
                        <polygon id="Fill-37" fill="#FFFFFF" mask="url(#mask-2)" points="35.149905 75.2053057 24.0194696 52.7121511 25.6015772 51.9055143 36.7320126 74.398669"></polygon>
                        <polygon id="Fill-38" fill="#FFFFFF" mask="url(#mask-2)" points="12.0985115 75.1924711 1.41981592 52.7278183 3.01440551 51.9467623 13.693101 74.4115036"></polygon>
                        <path d="M64.3615411,362.519633 L84.6336233,362.519633 L84.6336233,85.5846666 L64.3615411,85.5846666 L64.3615411,362.519633 Z M85.5188671,364.316753 L63.4762973,364.316753 C62.9873772,364.316753 62.5910536,363.914452 62.5910536,363.418237 L62.5910536,84.6861513 C62.5910536,84.189848 62.9873772,83.7875475 63.4762973,83.7875475 L85.5188671,83.7875475 C86.0077872,83.7875475 86.4041108,84.189848 86.4041108,84.6861513 L86.4041108,363.418237 C86.4041108,363.914452 86.0077872,364.316753 85.5188671,364.316753 L85.5188671,364.316753 Z" id="Fill-39" fill="#FFFFFF" mask="url(#mask-2)"></path>
                        <path d="M85.1344942,103.425157 L63.0919245,94.530785 C62.7883744,94.4083533 62.5941519,94.1521738 62.5910536,93.8700039 C62.5879552,93.5879071 62.7765121,93.3288074 63.0772294,93.2016302 L85.1197992,83.8839669 L85.9178464,85.2071352 L65.4768597,93.847737 L85.9032399,102.08987 L85.1344942,103.425157 Z" id="Fill-40" fill="#FFFFFF" mask="url(#mask-2)"></path>
                        <path d="M85.1344942,121.656729 L63.0919245,112.76243 C62.7883744,112.639925 62.5941519,112.383746 62.5910536,112.101649 C62.5879552,111.819479 62.7765121,111.560379 63.0772294,111.433202 L85.1197992,102.115539 L85.9178464,103.438707 L65.4768597,112.079309 L85.9032399,120.321442 L85.1344942,121.656729 Z" id="Fill-41" fill="#FFFFFF" mask="url(#mask-2)"></path>
                        <path d="M85.1344942,139.888337 L63.0919245,130.993965 C62.7883744,130.871534 62.5941519,130.615354 62.5910536,130.333257 C62.5879552,130.051087 62.7765121,129.791988 63.0772294,129.664811 L85.1197992,120.347147 L85.9178464,121.670316 L65.4768597,130.310917 L85.9032399,138.55305 L85.1344942,139.888337 Z" id="Fill-42" fill="#FFFFFF" mask="url(#mask-2)"></path>
                        <path d="M85.1344942,158.119946 L63.0919245,149.225574 C62.7883744,149.103142 62.5941519,148.846963 62.5910536,148.564866 C62.5879552,148.282696 62.7765121,148.023596 63.0772294,147.896419 L85.1197992,138.578756 L85.9178464,139.901924 L65.4768597,148.542526 L85.9032399,156.784659 L85.1344942,158.119946 Z" id="Fill-43" fill="#FFFFFF" mask="url(#mask-2)"></path>
                        <path d="M85.1344942,176.351554 L63.0919245,167.457182 C62.7883744,167.334751 62.5941519,167.078498 62.5910536,166.796401 C62.5879552,166.514304 62.7765121,166.255205 63.0772294,166.128027 L85.1197992,156.810364 L85.9178464,158.133532 L65.4768597,166.774134 L85.9032399,175.016267 L85.1344942,176.351554 Z" id="Fill-44" fill="#FFFFFF" mask="url(#mask-2)"></path>
                        <path d="M85.1344942,194.583119 L63.0919245,185.688747 C62.7883744,185.566242 62.5941519,185.310063 62.5910536,185.027966 C62.5879552,184.745796 62.7765121,184.486696 63.0772294,184.359519 L85.1197992,175.041929 L85.9178464,176.365097 L65.4768597,185.005699 L85.9032399,193.247978 L85.1344942,194.583119 Z" id="Fill-45" fill="#FFFFFF" mask="url(#mask-2)"></path>
                        <path d="M85.1344942,212.814764 L63.0919245,203.920319 C62.7883744,203.797814 62.5941519,203.541635 62.5910536,203.259538 C62.5879552,202.977441 62.7765121,202.718341 63.0772294,202.591164 L85.1197992,193.273574 L85.9178464,194.596742 L65.4768597,203.237271 L85.9032399,211.47955 L85.1344942,212.814764 Z" id="Fill-46" fill="#FFFFFF" mask="url(#mask-2)"></path>
                        <polygon id="Fill-47" fill="#FFFFFF" mask="url(#mask-2)" points="63.8752855 222.145897 63.0772383 220.822729 85.119808 211.505138 85.9178553 212.828307"></polygon>
                        <path d="M85.4885917,250.167243 L63.446022,241.272871 C63.1424719,241.150366 62.9482494,240.894186 62.9451511,240.61209 C62.9420527,240.329993 63.1306096,240.070893 63.4313269,239.943716 L85.4738967,230.626126 L86.2719439,231.949294 L65.8309572,240.589823 L86.2573374,248.832101 L85.4885917,250.167243 Z" id="Fill-48" fill="#FFFFFF" mask="url(#mask-2)"></path>
                        <path d="M85.4885917,268.398888 L63.446022,259.504443 C63.1424719,259.382011 62.9482494,259.125758 62.9451511,258.843662 C62.9420527,258.561565 63.1306096,258.302465 63.4313269,258.175288 L85.4738967,248.857697 L86.2719439,250.180866 L65.8309572,258.821395 L86.2573374,267.063673 L85.4885917,268.398888 Z" id="Fill-49" fill="#FFFFFF" mask="url(#mask-2)"></path>
                        <path d="M85.4885917,286.63046 L63.446022,277.736088 C63.1424719,277.613583 62.9482494,277.357403 62.9451511,277.075306 C62.9420527,276.793137 63.1306096,276.534037 63.4313269,276.406933 L85.4738967,267.089342 L86.2719439,268.412511 L65.8309572,277.053039 L86.2573374,285.295318 L85.4885917,286.63046 Z" id="Fill-50" fill="#FFFFFF" mask="url(#mask-2)"></path>
                        <path d="M85.5901961,305.175398 L63.4992374,296.261387 C63.1997533,296.140561 63.0069989,295.884309 63.0025807,295.601044 C62.9981625,295.317852 63.1827736,295.057219 63.4783593,294.929531 L85.0495307,285.61194 L85.8304245,286.935109 L65.8433914,295.568483 L86.3293336,303.834927 L85.5901961,305.175398 Z" id="Fill-51" fill="#FFFFFF" mask="url(#mask-2)"></path>
                        <path d="M85.5901961,323.802263 L63.4992374,314.888252 C63.1997533,314.767427 63.0069989,314.511174 63.0025807,314.227909 C62.9981625,313.944717 63.1827736,313.684085 63.4783593,313.556396 L85.0495307,304.238806 L85.8304245,305.561974 L65.8433914,314.195348 L86.3293336,322.461792 L85.5901961,323.802263 Z" id="Fill-51-Copy" fill="#FFFFFF" mask="url(#mask-2)"></path>
                        <path d="M85.5901961,342.429129 L63.4992374,333.515118 C63.1997533,333.394292 63.0069989,333.13804 63.0025807,332.854775 C62.9981625,332.571583 63.1827736,332.31095 63.4783593,332.183262 L85.0495307,322.865672 L85.8304245,324.18884 L65.8433914,332.822214 L86.3293336,341.088658 L85.5901961,342.429129 Z" id="Fill-51-Copy-2" fill="#FFFFFF" mask="url(#mask-2)"></path>
                        <path d="M85.5901961,361.055995 L63.4992374,352.141984 C63.1997533,352.021158 63.0069989,351.764906 63.0025807,351.481641 C62.9981625,351.198449 63.1827736,350.937816 63.4783593,350.810128 L85.0495307,341.492537 L85.8304245,342.815706 L65.8433914,351.44908 L86.3293336,359.715524 L85.5901961,361.055995 Z" id="Fill-51-Copy-3" fill="#FFFFFF" mask="url(#mask-2)"></path>
                        <polygon id="Fill-53" fill="#FFFFFF" mask="url(#mask-2)" points="85.4739409 232.076982 63.4313712 222.759392 64.2294185 221.436223 86.2719882 230.753814"></polygon>
                        <polygon id="Fill-54" fill="#1F394C" mask="url(#mask-2)" points="57.6783479 84.4698945 91.2282014 84.4698945 91.2282014 75.3944563 57.6783479 75.3944563"></polygon>
                        <polygon id="Fill-58" fill="#3F5461" mask="url(#mask-2)" points="230.606089 84.6861513 266.369937 84.6861513 266.369937 75.6107131 230.606089 75.6107131"></polygon>
                        <path d="M255.832491,103.622126 C255.832491,107.715412 252.563375,111.03366 248.530824,111.03366 C244.498096,111.03366 241.228979,107.715412 241.228979,103.622126 C241.228979,99.5288404 244.498096,96.2105918 248.530824,96.2105918 C252.563375,96.2105918 255.832491,99.5288404 255.832491,103.622126" id="Fill-60" fill="#3F5461" mask="url(#mask-2)"></path>
                        <polygon id="Fill-71" fill="#FFFFFF" mask="url(#mask-2)" points="289.908064 75.2053057 278.777718 52.7121511 280.359914 51.9055143 291.490261 74.398669"></polygon>
                    </g>
                    <polygon id="Fill-56" fill="#1F394C" points="53.2415519 382.294243 96.6059437 382.294243 96.6059437 363.667377 53.2415519 363.667377"></polygon>
                    <polygon id="Fill-56" fill="#FFFFFF" points="53.2415519 364.554371 96.6059437 364.554371 96.6059437 362.780384 53.2415519 362.780384"></polygon>
                    <polygon id="Fill-56" fill="#FFFFFF" points="59.4530663 42.575693 87.8485607 42.575693 87.8485607 40.8017058 59.4530663 40.8017058"></polygon>
                    <polygon id="Fill-56-Copy" fill="#FFFFFF" points="57.6783479 86.0383795 91.3979975 86.0383795 91.3979975 84.2643923 57.6783479 84.2643923"></polygon>
                    <path d="M251.122653,142.80597 L379.789737,171.189765" id="Line" stroke="#00233C" stroke-width="2" stroke-linecap="square"></path>
                    <path d="M244.607088,125.066098 L244.607088,128.211034 C244.607088,128.211034 244.649766,130.08034 246.599634,130.660914 C248.549502,131.241488 252.359965,131.470952 254.074267,133.720471 C255.78857,135.96999 255.177114,139.151571 254.074267,141.256191 C253.108466,143.099515 251.193994,144.438835 247.274853,143.955632 C241.23995,143.21157 241.855859,141.606493 240.474343,140.468939 C239.605398,142.830657 240.474343,145.738589 247.274853,146.992403 C252.889065,148.027497 255.637463,146.203823 257.16003,143.955632 C258.836989,141.479426 259.674601,139.570424 259.374489,135.762688 C259.156184,132.991993 257.738342,129.910699 254.117271,128.427365 C250.746005,127.046266 251.743005,127.4144 251.743005,127.4144 L251.743005,125.066098 L244.607088,125.066098 Z" id="Fill-63" fill="#E0F4FF"></path>
                    <path d="M166.823529,161.432836 L250.235294,142.80597" id="Line" stroke="#00233C" stroke-width="2" stroke-linecap="square"></path>
                    <path d="M253.356827,123.124632 C253.356827,124.313803 252.762298,125.277726 252.028962,125.277726 L244.858487,125.277726 C244.125151,125.277726 243.530622,124.313803 243.530622,123.124632 L241.228988,104.60777 C241.228988,103.418598 241.823518,102.454676 242.556854,102.454676 L254.507644,102.454676 C255.24098,102.454676 255.83551,103.418598 255.83551,104.60777 L253.356827,123.124632 Z" id="Fill-62" fill="#3F5461"></path>
                    <polygon id="Fill-12" fill="#3F5461" points="87.9047767 75.3944563 59.6655006 75.3944563 59.6655006 42.5437745 87.9047767 42.5437745 87.9047767 57.1412229 87.9047767 59.5596387"></polygon>
                    <polygon id="Fill-59" fill="#E0F4FF" points="85.1730514 66.1916811 70.5665293 66.0860172 70.5665293 46.2278642 85.1730514 46.2310768"></polygon>
                    <path d="M75.7260621,19.2081327 C75.7260621,22.2458774 73.2999631,24.708452 70.3072195,24.708452 C67.3144759,24.708452 64.8884653,22.2458774 64.8884653,19.2081327 C64.8884653,16.170388 67.3144759,13.7078135 70.3072195,13.7078135 C73.2999631,13.7078135 75.7260621,16.170388 75.7260621,19.2081327" id="Fill-8" fill="#3F5461"></path>
                </g>
                <g id="Group-2" transform="translate(118.856070, 155.223881)">
                    <g id="Page-1" transform="translate(140.828593, 100.582136) rotate(3.000000) translate(-140.828593, -100.582136) translate(5.328593, 7.082136)">
                        <g id="Group-13" transform="translate(0.000000, 0.031569)">
                            <path d="M269.732362,185.785998 L1.18594467,185.785998 C0.533675101,185.785998 3.92574862e-13,185.253264 3.92574862e-13,184.602145 L3.92574862e-13,1.23097035 C3.92574862e-13,0.579851202 0.533675101,0.0471173496 1.18594467,0.0471173496 L269.732362,0.0471173496 C270.384632,0.0471173496 270.918307,0.579851202 270.918307,1.23097035 L270.918307,184.602145 C270.918307,185.253264 270.384632,185.785998 269.732362,185.785998" id="Fill-1" fill="#F4F4F4"></path>
                            <path d="M266.669597,183.081865 L4.24874165,183.081865 C3.30623189,183.081865 2.54216727,182.319148 2.54216727,181.378379 L2.54216727,18.8056865 C2.54216727,17.864918 3.30623189,17.1022009 4.24874165,17.1022009 L266.669597,17.1022009 C267.612107,17.1022009 268.376092,17.864918 268.376092,18.8056865 L268.376092,181.378379 C268.376092,182.319148 267.612107,183.081865 266.669597,183.081865" id="Fill-3" fill="#FFFFFF"></path>
                            <path d="M11.2359323,8.53538285 C11.2359323,10.1125907 9.95511209,11.3912309 8.37503847,11.3912309 C6.79504392,11.3912309 5.51422368,10.1125907 5.51422368,8.53538285 C5.51422368,6.95817496 6.79504392,5.67953479 8.37503847,5.67953479 C9.95511209,5.67953479 11.2359323,6.95817496 11.2359323,8.53538285" id="Fill-5" fill="#CE415C"></path>
                            <path d="M21.1284503,8.53538285 C21.1284503,10.1125907 19.84763,11.3912309 18.2675564,11.3912309 C16.6875618,11.3912309 15.4067416,10.1125907 15.4067416,8.53538285 C15.4067416,6.95817496 16.6875618,5.67953479 18.2675564,5.67953479 C19.84763,5.67953479 21.1284503,6.95817496 21.1284503,8.53538285" id="Fill-7" fill="#F18E43"></path>
                            <path d="M31.0209761,8.53538285 C31.0209761,10.1125907 29.7401558,11.3912309 28.1600822,11.3912309 C26.5800877,11.3912309 25.2992674,10.1125907 25.2992674,8.53538285 C25.2992674,6.95817496 26.5800877,5.67953479 28.1600822,5.67953479 C29.7401558,5.67953479 31.0209761,6.95817496 31.0209761,8.53538285" id="Fill-9" fill="#4AD7A3"></path>
                            <path d="M267.403349,12.2197149 L39.0066136,12.2197149 C38.8761597,12.2197149 38.7694246,12.1131682 38.7694246,11.9829443 L38.7694246,5.08778981 C38.7694246,4.95756598 38.8761597,4.85101921 39.0066136,4.85101921 L267.403349,4.85101921 C267.533803,4.85101921 267.640538,4.95756598 267.640538,5.08778981 L267.640538,11.9829443 C267.640538,12.1131682 267.533803,12.2197149 267.403349,12.2197149" id="Fill-11" fill="#FFFFFF"></path>
                        </g>
                        <g id="Group-37" transform="translate(2.530015, 17.000129)">
                            <g id="Group-22">
                                <path d="M265.874722,1.77282777 L265.975685,164.345284 C265.975685,165.286131 265.213202,166.049716 264.270692,166.049716 L64.3367867,166.174731 L64.3367867,166.131008 L64.3367867,155.32314 L64.3367867,0.194672788 L264.166092,0.0708417638 C265.108601,0.0696579108 265.873536,0.831980322 265.874722,1.77282777" id="Fill-14" fill="#FFFFFF"></path>
                                <path d="M64.3367867,166.131023 L64.3367867,166.174747 L1.84959931,166.213577 C0.907168609,166.213577 0.142234297,165.451176 0.142234297,164.510408 L0.136146448,155.323156 L64.3367867,155.323156 L64.3367867,166.131023 Z" id="Fill-16" fill="#3498DB"></path>
                                <path d="M15.7521361,24.7956039 C20.0669191,24.7615878 23.5376257,21.2423085 23.5036286,16.9352145 C23.4695525,12.6280416 19.9440552,9.16345633 15.6292723,9.19739345 C11.3145684,9.2314095 7.8437827,12.7506888 7.87785884,17.0577828 C7.91193499,21.3649557 11.4373532,24.8296199 15.7521361,24.7956039 L15.7521361,24.7956039 Z M64.3368105,0.194664896 L64.3368105,155.323132 L0.136091104,155.323132 L0.0400295857,1.93792791 C0.0400295857,0.997080462 0.803777953,0.233495274 1.74620865,0.233495274 L64.3368105,0.194664896 Z" id="Fill-18" fill="#124364"></path>
                                <path d="M23.503597,16.9352066 C23.5376731,21.2423006 20.0668875,24.7615799 15.7521045,24.795596 C11.4374006,24.829612 7.91190336,21.3649478 7.87782722,17.0578538 C7.84383014,12.7506809 11.3145367,9.2314016 15.6293197,9.19738556 C19.9440236,9.16344844 23.4695208,12.6281126 23.503597,16.9352066" id="Fill-20" fill="#F6F6F6"></path>
                            </g>
                            <path d="M27.2882548,14.7889837 L34.2751292,14.7889837 L45.3179344,14.7889837 L47.8666085,14.7889837 C48.88407,14.7889837 48.8857303,13.2105131 47.8666085,13.2105131 L40.8797341,13.2105131 L29.8369289,13.2105131 L27.2882548,13.2105131 C26.2707933,13.2105131 26.269133,14.7889837 27.2882548,14.7889837" id="Fill-23" fill="#F6F6F6"></path>
                            <path d="M27.2882548,20.6159872 L30.0009846,20.6159872 L36.5142718,20.6159872 L44.3525754,20.6159872 L51.1667763,20.6159872 C52.2685189,20.6159872 53.3807769,20.660579 54.481966,20.6159872 C54.4976205,20.6153558 54.513354,20.6159872 54.5290085,20.6159872 C55.54647,20.6159872 55.5482094,19.0375165 54.5290085,19.0375165 L51.8163577,19.0375165 L45.3029915,19.0375165 L37.4646879,19.0375165 L30.650566,19.0375165 C29.5487444,19.0375165 28.4364864,18.9929247 27.3352972,19.0375165 C27.3197218,19.0381479 27.3039092,19.0375165 27.2882548,19.0375165 C26.2707933,19.0375165 26.269133,20.6159872 27.2882548,20.6159872" id="Fill-25" fill="#F6F6F6"></path>
                            <path d="M8.67834777,42.2245009 L12.9726534,42.2245009 L23.2834145,42.2245009 L35.7522786,42.2245009 L46.4941701,42.2245009 C48.2342672,42.2245009 49.9850378,42.2809312 51.7245024,42.2245009 C51.7497235,42.2237117 51.7751027,42.2245009 51.8004028,42.2245009 C52.8178643,42.2245009 52.8195246,40.6460302 51.8004028,40.6460302 L47.5060972,40.6460302 L37.1953361,40.6460302 L24.7263929,40.6460302 L13.9845805,40.6460302 C12.2444834,40.6460302 10.4937128,40.5895999 8.75424823,40.6460302 C8.72902714,40.6468195 8.70364793,40.6460302 8.67834777,40.6460302 C7.66088631,40.6460302 7.65922599,42.2245009 8.67834777,42.2245009" id="Fill-27" fill="#F6F6F6"></path>
                            <path d="M8.67834777,55.5376067 L12.9726534,55.5376067 L23.2834145,55.5376067 L35.7522786,55.5376067 L46.4941701,55.5376067 C48.2342672,55.5376067 49.9850378,55.594037 51.7245024,55.5376067 C51.7497235,55.5368174 51.7751027,55.5376067 51.8004028,55.5376067 C52.8178643,55.5376067 52.8195246,53.959136 51.8004028,53.959136 L47.5060972,53.959136 L37.1953361,53.959136 L24.7263929,53.959136 L13.9845805,53.959136 C12.2444834,53.959136 10.4937128,53.9027057 8.75424823,53.959136 C8.72902714,53.9599252 8.70364793,53.959136 8.67834777,53.959136 C7.66088631,53.959136 7.65922599,55.5376067 8.67834777,55.5376067" id="Fill-29" fill="#F6F6F6"></path>
                            <path d="M8.67834777,68.8507124 L12.9726534,68.8507124 L23.2834145,68.8507124 L35.7522786,68.8507124 L46.4941701,68.8507124 C48.2342672,68.8507124 49.9850378,68.9071428 51.7245024,68.8507124 C51.7497235,68.8499232 51.7751027,68.8507124 51.8004028,68.8507124 C52.8178643,68.8507124 52.8195246,67.2722418 51.8004028,67.2722418 L47.5060972,67.2722418 L37.1953361,67.2722418 L24.7263929,67.2722418 L13.9845805,67.2722418 C12.2444834,67.2722418 10.4937128,67.2158114 8.75424823,67.2722418 C8.72902714,67.273031 8.70364793,67.2722418 8.67834777,67.2722418 C7.66088631,67.2722418 7.65922599,68.8507124 8.67834777,68.8507124" id="Fill-31" fill="#F6F6F6"></path>
                            <path d="M8.67834777,82.1638182 L12.9726534,82.1638182 L23.2834145,82.1638182 L35.7522786,82.1638182 L46.4941701,82.1638182 C48.2342672,82.1638182 49.9850378,82.2202486 51.7245024,82.1638182 C51.7497235,82.163029 51.7751027,82.1638182 51.8004028,82.1638182 C52.8178643,82.1638182 52.8195246,80.5853476 51.8004028,80.5853476 L47.5060972,80.5853476 L37.1953361,80.5853476 L24.7263929,80.5853476 L13.9845805,80.5853476 C12.2444834,80.5853476 10.4937128,80.5289172 8.75424823,80.5853476 C8.72902714,80.5861368 8.70364793,80.5853476 8.67834777,80.5853476 C7.66088631,80.5853476 7.65922599,82.1638182 8.67834777,82.1638182" id="Fill-33" fill="#F6F6F6"></path>
                            <path d="M8.67834777,146.989344 L12.9726534,146.989344 L23.2834145,146.989344 L35.7522786,146.989344 L46.4941701,146.989344 C48.2342672,146.989344 49.9850378,147.045774 51.7245024,146.989344 C51.7497235,146.988554 51.7751027,146.989344 51.8004028,146.989344 C52.8178643,146.989344 52.8195246,145.410873 51.8004028,145.410873 L47.5060972,145.410873 L37.1953361,145.410873 L24.7263929,145.410873 L13.9845805,145.410873 C12.2444834,145.410873 10.4937128,145.354443 8.75424823,145.410873 C8.72902714,145.411662 8.70364793,145.410873 8.67834777,145.410873 C7.66088631,145.410873 7.65922599,146.989344 8.67834777,146.989344" id="Fill-35" fill="#F6F6F6"></path>
                        </g>
                        <g id="Group-84" transform="translate(77.323592, 29.785742)">
                            <path d="M1.374668,1.65458453 L6.60571181,1.65458453 L19.1685028,1.65458453 L34.3679649,1.65458453 L47.5087063,1.65458453 C49.6343935,1.65458453 51.7703589,1.71598704 53.8954136,1.65458453 C53.9252994,1.65371637 53.9552643,1.65458453 53.985071,1.65458453 C55.0025325,1.65458453 55.0042719,0.0761138558 53.985071,0.0761138558 L48.7541063,0.0761138558 L36.1912363,0.0761138558 L20.9917741,0.0761138558 L7.85103277,0.0761138558 C5.72542461,0.0761138558 3.58938014,0.0147113467 1.46432541,0.0761138558 C1.43443961,0.0769820147 1.4045538,0.0761138558 1.374668,0.0761138558 C0.357206534,0.0761138558 0.355546212,1.65458453 1.374668,1.65458453" id="Fill-38" fill="#B7D2D7"></path>
                            <path d="M178.011046,76.5967495 L1.14099737,76.5967495 C0.619181712,76.5967495 0.192241631,76.1705624 0.192241631,75.6496671 L0.192241631,68.3220905 C0.192241631,67.8011952 0.619181712,67.3750081 1.14099737,67.3750081 L178.011046,67.3750081 C178.532862,67.3750081 178.959802,67.8011952 178.959802,68.3220905 L178.959802,75.6496671 C178.959802,76.1705624 178.532862,76.5967495 178.011046,76.5967495" id="Fill-40" fill="#F4F4F4"></path>
                            <path d="M6.50825878,72.775122 L15.5038863,72.775122 L16.7823346,72.775122 C17.7997961,72.775122 17.8014564,71.1966513 16.7823346,71.1966513 L7.78670713,71.1966513 L6.50825878,71.1966513 C5.49079732,71.1966513 5.489137,72.775122 6.50825878,72.775122" id="Fill-42" fill="#B7D2D7"></path>
                            <path d="M164.290109,72.775122 L173.285736,72.775122 L174.564185,72.775122 C175.581646,72.775122 175.583307,71.1966513 174.564185,71.1966513 L165.568557,71.1966513 L164.290109,71.1966513 C163.272647,71.1966513 163.270987,72.775122 164.290109,72.775122" id="Fill-44" fill="#B7D2D7"></path>
                            <path d="M34.7812983,72.775122 L39.4591384,72.775122 L50.6093902,72.775122 L64.1694025,72.775122 L75.8236808,72.775122 C77.7175553,72.775122 79.6218662,72.8330519 81.5151874,72.775122 C81.5408038,72.7743328 81.5666574,72.775122 81.5923528,72.775122 C82.6098143,72.775122 82.6114746,71.1966513 81.5923528,71.1966513 L76.9145127,71.1966513 L65.7641818,71.1966513 L52.2041696,71.1966513 L40.5499704,71.1966513 C38.6560167,71.1966513 36.7517058,71.1387215 34.8584638,71.1966513 C34.8327683,71.1974406 34.8069938,71.1966513 34.7812983,71.1966513 C33.7638368,71.1966513 33.7621765,72.775122 34.7812983,72.775122" id="Fill-46" fill="#B7D2D7"></path>
                            <path d="M178.011046,90.2538119 L1.14099737,90.2538119 C0.619181712,90.2538119 0.192241631,89.8276248 0.192241631,89.3067295 L0.192241631,81.9791529 C0.192241631,81.4582576 0.619181712,81.0320705 1.14099737,81.0320705 L178.011046,81.0320705 C178.532862,81.0320705 178.959802,81.4582576 178.959802,81.9791529 L178.959802,89.3067295 C178.959802,89.8276248 178.532862,90.2538119 178.011046,90.2538119" id="Fill-48" fill="#F4F4F4"></path>
                            <path d="M6.50825878,86.4321766 L15.5038863,86.4321766 L16.7823346,86.4321766 C17.7997961,86.4321766 17.8014564,84.8537059 16.7823346,84.8537059 L7.78670713,84.8537059 L6.50825878,84.8537059 C5.49079732,84.8537059 5.489137,86.4321766 6.50825878,86.4321766" id="Fill-50" fill="#B7D2D7"></path>
                            <path d="M164.290109,86.4321766 L173.285736,86.4321766 L174.564185,86.4321766 C175.581646,86.4321766 175.583307,84.8537059 174.564185,84.8537059 L165.568557,84.8537059 L164.290109,84.8537059 C163.272647,84.8537059 163.270987,86.4321766 164.290109,86.4321766" id="Fill-52" fill="#B7D2D7"></path>
                            <path d="M34.7812983,86.4321766 L39.4591384,86.4321766 L50.6093902,86.4321766 L64.1694025,86.4321766 L75.8236808,86.4321766 C77.7175553,86.4321766 79.6218662,86.4901064 81.5151874,86.4321766 C81.5408038,86.4313873 81.5666574,86.4321766 81.5923528,86.4321766 C82.6098143,86.4321766 82.6114746,84.8537059 81.5923528,84.8537059 L76.9145127,84.8537059 L65.7641818,84.8537059 L52.2041696,84.8537059 L40.5499704,84.8537059 C38.6560167,84.8537059 36.7517058,84.795776 34.8584638,84.8537059 C34.8327683,84.8544951 34.8069938,84.8537059 34.7812983,84.8537059 C33.7638368,84.8537059 33.7621765,86.4321766 34.7812983,86.4321766" id="Fill-54" fill="#B7D2D7"></path>
                            <path d="M178.011046,103.910874 L1.14099737,103.910874 C0.619181712,103.910874 0.192241631,103.484687 0.192241631,102.963792 L0.192241631,95.6362154 C0.192241631,95.11532 0.619181712,94.689133 1.14099737,94.689133 L178.011046,94.689133 C178.532862,94.689133 178.959802,95.11532 178.959802,95.6362154 L178.959802,102.963792 C178.959802,103.484687 178.532862,103.910874 178.011046,103.910874" id="Fill-56" fill="#F4F4F4"></path>
                            <path d="M6.50825878,100.089239 L15.5038863,100.089239 L16.7823346,100.089239 C17.7997961,100.089239 17.8014564,98.5107683 16.7823346,98.5107683 L7.78670713,98.5107683 L6.50825878,98.5107683 C5.49079732,98.5107683 5.489137,100.089239 6.50825878,100.089239" id="Fill-58" fill="#B7D2D7"></path>
                            <path d="M164.290109,100.089239 L173.285736,100.089239 L174.564185,100.089239 C175.581646,100.089239 175.583307,98.5107683 174.564185,98.5107683 L165.568557,98.5107683 L164.290109,98.5107683 C163.272647,98.5107683 163.270987,100.089239 164.290109,100.089239" id="Fill-60" fill="#B7D2D7"></path>
                            <path d="M34.7812983,100.089239 L39.4591384,100.089239 L50.6093902,100.089239 L64.1694025,100.089239 L75.8236808,100.089239 C77.7175553,100.089239 79.6218662,100.147169 81.5151874,100.089239 C81.5408038,100.08845 81.5666574,100.089239 81.5923528,100.089239 C82.6098143,100.089239 82.6114746,98.5107683 81.5923528,98.5107683 L76.9145127,98.5107683 L65.7641818,98.5107683 L52.2041696,98.5107683 L40.5499704,98.5107683 C38.6560167,98.5107683 36.7517058,98.4528384 34.8584638,98.5107683 C34.8327683,98.5115575 34.8069938,98.5107683 34.7812983,98.5107683 C33.7638368,98.5107683 33.7621765,100.089239 34.7812983,100.089239" id="Fill-62" fill="#B7D2D7"></path>
                            <path d="M178.011046,117.567937 L1.14099737,117.567937 C0.619181712,117.567937 0.192241631,117.14175 0.192241631,116.620854 L0.192241631,109.293278 C0.192241631,108.772382 0.619181712,108.346195 1.14099737,108.346195 L178.011046,108.346195 C178.532862,108.346195 178.959802,108.772382 178.959802,109.293278 L178.959802,116.620854 C178.959802,117.14175 178.532862,117.567937 178.011046,117.567937" id="Fill-64" fill="#F4F4F4"></path>
                            <path d="M6.50825878,113.746301 L15.5038863,113.746301 L16.7823346,113.746301 C17.7997961,113.746301 17.8014564,112.167831 16.7823346,112.167831 L7.78670713,112.167831 L6.50825878,112.167831 C5.49079732,112.167831 5.489137,113.746301 6.50825878,113.746301" id="Fill-66" fill="#B7D2D7"></path>
                            <path d="M164.290109,113.746301 L173.285736,113.746301 L174.564185,113.746301 C175.581646,113.746301 175.583307,112.167831 174.564185,112.167831 L165.568557,112.167831 L164.290109,112.167831 C163.272647,112.167831 163.270987,113.746301 164.290109,113.746301" id="Fill-68" fill="#B7D2D7"></path>
                            <path d="M34.7812983,113.746301 L39.4591384,113.746301 L50.6093902,113.746301 L64.1694025,113.746301 L75.8236808,113.746301 C77.7175553,113.746301 79.6218662,113.804231 81.5151874,113.746301 C81.5408038,113.745512 81.5666574,113.746301 81.5923528,113.746301 C82.6098143,113.746301 82.6114746,112.167831 81.5923528,112.167831 L76.9145127,112.167831 L65.7641818,112.167831 L52.2041696,112.167831 L40.5499704,112.167831 C38.6560167,112.167831 36.7517058,112.109901 34.8584638,112.167831 C34.8327683,112.16862 34.8069938,112.167831 34.7812983,112.167831 C33.7638368,112.167831 33.7621765,113.746301 34.7812983,113.746301" id="Fill-70" fill="#B7D2D7"></path>
                            <path d="M178.011046,131.224991 L1.14099737,131.224991 C0.619181712,131.224991 0.192241631,130.798804 0.192241631,130.277909 L0.192241631,122.950332 C0.192241631,122.429437 0.619181712,122.00325 1.14099737,122.00325 L178.011046,122.00325 C178.532862,122.00325 178.959802,122.429437 178.959802,122.950332 L178.959802,130.277909 C178.959802,130.798804 178.532862,131.224991 178.011046,131.224991" id="Fill-72" fill="#F4F4F4"></path>
                            <path d="M6.50825878,127.403364 L15.5038863,127.403364 L16.7823346,127.403364 C17.7997961,127.403364 17.8014564,125.824893 16.7823346,125.824893 L7.78670713,125.824893 L6.50825878,125.824893 C5.49079732,125.824893 5.489137,127.403364 6.50825878,127.403364" id="Fill-74" fill="#B7D2D7"></path>
                            <path d="M164.290109,127.403364 L173.285736,127.403364 L174.564185,127.403364 C175.581646,127.403364 175.583307,125.824893 174.564185,125.824893 L165.568557,125.824893 L164.290109,125.824893 C163.272647,125.824893 163.270987,127.403364 164.290109,127.403364" id="Fill-76" fill="#B7D2D7"></path>
                            <path d="M34.7812983,127.403364 L39.4591384,127.403364 L50.6093902,127.403364 L64.1694025,127.403364 L75.8236808,127.403364 C77.7175553,127.403364 79.6218662,127.461294 81.5151874,127.403364 C81.5408038,127.402575 81.5666574,127.403364 81.5923528,127.403364 C82.6098143,127.403364 82.6114746,125.824893 81.5923528,125.824893 L76.9145127,125.824893 L65.7641818,125.824893 L52.2041696,125.824893 L40.5499704,125.824893 C38.6560167,125.824893 36.7517058,125.766963 34.8584638,125.824893 C34.8327683,125.825682 34.8069938,125.824893 34.7812983,125.824893 C33.7638368,125.824893 33.7621765,127.403364 34.7812983,127.403364" id="Fill-78" fill="#B7D2D7"></path>
                            <path d="M1.49628267,8.30924325 L5.65278155,8.30924325 L16.862884,8.30924325 L33.4829498,8.30924325 L53.7600736,8.30924325 L75.8917777,8.30924325 L98.3837718,8.30924325 L119.212518,8.30924325 L136.877164,8.30924325 L149.577287,8.30924325 C151.576948,8.30924325 153.580878,8.34744224 155.580223,8.30924325 C155.667587,8.30758586 155.755189,8.30924325 155.842633,8.30924325 C156.860094,8.30924325 156.861834,6.73077258 155.842633,6.73077258 L151.686134,6.73077258 L140.476032,6.73077258 L123.855966,6.73077258 L103.578842,6.73077258 L81.4471379,6.73077258 L58.9551438,6.73077258 L38.1263975,6.73077258 L20.4618308,6.73077258 L7.76162836,6.73077258 C5.76204658,6.73077258 3.75811634,6.69257359 1.75869269,6.73077258 C1.6713281,6.73242997 1.58372632,6.73077258 1.49628267,6.73077258 C0.478821207,6.73077258 0.477160885,8.30924325 1.49628267,8.30924325" id="Fill-80" fill="#B7D2D7"></path>
                            <path d="M1.24329695,56.6014328 C8.24171457,53.2572059 15.2401322,49.912979 22.2385498,46.5687521 L25.2080762,45.149707 C25.0049634,45.1762253 24.8019297,45.2027436 24.5988169,45.2292619 C27.559251,46.1004988 30.5197642,46.9716567 33.4801984,47.8428147 C36.9237073,48.8561929 40.3544871,49.9812478 43.8279609,50.8879214 C44.4656039,51.0543711 44.946623,50.7485424 45.5203831,50.4889629 C46.8483248,49.8882759 48.1762666,49.28751 49.5042874,48.686744 C53.6282914,46.8211496 57.7522954,44.9555551 61.8762994,43.0899606 C64.6522006,41.8342082 67.4281017,40.5784559 70.2040029,39.3227035 C70.0008901,39.3492219 69.7978564,39.3757402 69.5947436,39.4022585 C72.7812188,40.4543881 75.9677731,41.5065177 79.1542483,42.5585684 C81.3344889,43.27843 83.5147296,43.9982915 85.6949703,44.7181531 C86.6604083,45.0369252 87.7074393,45.5456663 88.713832,45.7148784 C89.4259522,45.8346054 90.3494869,45.0366095 90.9192147,44.7043415 C92.4546968,43.8087961 93.9901789,42.9131719 95.52574,42.0176265 C99.701214,39.5822831 103.876688,37.1469396 108.052162,34.7115961 C110.759041,33.1328097 113.46592,31.5540234 116.1728,29.975237 L115.374659,29.975237 L136.911256,41.6468438 C137.920811,42.1940206 138.930445,42.7411975 139.94,43.2882954 C140.185175,43.4212026 140.494311,43.4400654 140.738141,43.2882954 C145.020745,40.6228109 149.303271,37.9573264 153.585875,35.2918419 C160.404424,31.0479657 167.222974,26.8041683 174.041444,22.5602921 C175.596613,21.5923739 177.151703,20.6244557 178.706792,19.6565374 C179.5685,19.120252 178.775577,17.7540857 177.908731,18.2936069 C173.626126,20.9590914 169.343522,23.6245759 165.060997,26.2900604 L144.605349,39.0216103 C143.050259,39.9895285 141.495169,40.9574467 139.94,41.9253649 L140.738141,41.9253649 C133.170707,37.8241824 125.603273,33.7230788 118.03584,29.6219753 C117.356056,29.2534813 116.152322,28.2736456 115.345959,28.6290383 C114.343282,29.0709311 113.38836,29.770825 112.443715,30.3217113 C107.907793,32.9673071 103.371871,35.6129029 98.8359488,38.2584197 C95.3990021,40.2630775 91.9619763,42.2677352 88.5249505,44.272393 C88.7280633,44.2457957 88.931097,44.2193563 89.1341308,44.1927591 C86.2268269,43.2328911 83.3195231,42.2729442 80.4122193,41.3130761 C77.0268216,40.1952821 73.653995,38.9194832 70.222978,37.9488027 C69.5942692,37.770988 69.0873965,38.1038874 68.5191708,38.3608624 C67.1584179,38.976466 65.7975859,39.5920696 64.436833,40.2075942 C60.3309345,42.0650596 56.2249568,43.922446 52.1189792,45.7799114 C49.3685363,47.0241409 46.6180934,48.2683704 43.8676506,49.5125999 C44.0707634,49.4860816 44.2737971,49.4595633 44.4769099,49.433045 C38.1489463,47.5709231 31.8209827,45.7088013 25.4930192,43.8466794 C24.8598038,43.660341 24.4576104,43.7639676 23.8755488,44.042173 C22.6939526,44.606792 21.5122773,45.1714109 20.3306811,45.7361088 C16.4121618,47.6085696 12.4937215,49.4810305 8.57520221,51.3534913 C5.86523958,52.6484687 3.15519789,53.9435249 0.445235254,55.2385023 C-0.472290605,55.6769225 0.328933613,57.0383534 1.24329695,56.6014328" id="Fill-82" fill="#3498DB"></path>
                        </g>
                    </g>
                    <g id="Page-1" transform="translate(26.624760, 36.110273) rotate(3.000000) translate(-26.624760, -36.110273) translate(18.624760, 26.610273)">
                        <g id="Group-3" transform="translate(-0.000000, 0.110956)">
                            <mask id="mask-4" fill="white">
                                <use xlink:href="#path-3"></use>
                            </mask>
                            <g id="Clip-2"></g>
                            <path d="M15.9175829,8.0993683 C15.9175829,12.5419334 12.3542411,16.143217 7.95884907,16.143217 C3.56329241,16.143217 -4.93993779e-05,12.5419334 -4.93993779e-05,8.0993683 C-4.93993779e-05,3.65680323 3.56329241,0.0555195815 7.95884907,0.0555195815 C12.3542411,0.0555195815 15.9175829,3.65680323 15.9175829,8.0993683" id="Fill-1" fill="#D8E4E7" mask="url(#mask-4)"></path>
                        </g>
                        <path d="M6.17149724,14.3756273 C6.12012188,14.4067489 6.06413592,14.4441947 6.00617399,14.4844697 C6.27358929,14.8174873 6.91709852,15.4419162 7.90393343,15.297958 C8.71819984,15.1791301 9.36335572,14.9090214 9.73566237,14.6059604 C9.57066844,14.4848025 9.4229643,14.371966 9.32070759,14.2924145 C9.32070759,14.2924145 9.43827811,14.0885431 9.71442063,13.399874 C9.74932953,13.3128334 9.78703772,13.2174715 9.82688655,13.1147869 C9.8229346,13.0881588 9.81815933,13.0616972 9.81470137,13.0350691 C9.7806158,12.7583033 9.78456775,12.4780426 9.83199115,12.2540337 C9.98529389,12.1488527 10.0783294,12.0065588 10.3396521,11.6409218 C10.5207831,11.3872892 10.7022435,10.6866374 10.8339752,10.2679106 C10.9885953,10.3759208 11.0300907,10.304857 11.1791122,10.1918541 C11.4218278,10.0077873 11.2094105,9.55377829 11.6039468,9.0318676 C11.6039468,9.0318676 11.9755948,8.64409594 11.9039657,8.2811217 C11.8110949,7.81163507 11.6882551,7.83776389 11.6882551,7.83776389 C12.4165666,6.25938346 12.4391257,4.54703042 11.1835581,3.4236576 C11.0534731,3.3073261 10.6340724,2.65560343 10.1827267,2.32624716 C8.23276862,1.29640553 7.06052138,2.29728911 7.06052138,2.29728911 C6.92829571,2.32291865 6.50263774,2.34738322 6.29499568,2.34189117 C5.25217481,2.3140981 4.58034327,3.68594435 4.54806901,3.72904858 C3.93123544,4.65370924 3.90884106,5.65725563 3.90884106,5.65725563 C3.67073605,7.08502088 4.310458,7.83177257 4.310458,7.83177257 C4.31161065,7.84259023 4.38949701,7.98272059 4.39114365,7.99337183 C4.19898007,7.91015903 4.09441805,8.07458752 4.00698115,8.32622304 C3.86471095,8.7347979 4.44894092,9.0318676 4.44894092,9.0318676 C4.84347729,9.55377829 4.54971565,9.96934303 4.79243127,10.1534097 C4.92037566,10.2504359 5.00106131,10.404546 5.1494241,10.3133447 C5.55762763,11.4162472 5.55565166,11.7241346 5.78041883,11.8800754 C5.85023662,12.1691567 5.81483373,12.7879271 5.68409004,13.3111692 C5.68178474,13.3199897 5.6791501,13.3284774 5.67700946,13.337298 C5.71241235,13.4253371 5.74600393,13.5065528 5.77761953,13.5811115 C6.04009489,14.2000483 6.17149724,14.3756273 6.17149724,14.3756273" id="Fill-4" fill="#BFCACC"></path>
                        <path d="M5.61944272,11.1811045 C5.5492956,10.9610898 5.45346081,10.6596931 5.30361603,10.2551124 L5.24137281,10.071545 L5.07127429,10.1760603 C5.05612515,10.1702354 5.01874628,10.1344539 4.99388193,10.110655 C4.96177233,10.0800327 4.92818076,10.0482454 4.89113122,10.0202859 C4.85210571,9.99066214 4.84700111,9.92825254 4.84387248,9.78196444 C4.83926188,9.5639469 4.83283996,9.26571221 4.57991514,8.9308639 L4.5568621,8.90057444 L4.52294119,8.88326618 C4.51833058,8.88110264 4.0722542,8.64028479 4.16216107,8.38149298 C4.23477815,8.17346098 4.28401287,8.14267224 4.29290475,8.13867802 C4.29652738,8.13618164 4.30871256,8.13867802 4.326167,8.1463336 L4.5935823,8.26216582 L4.55422746,7.97092102 C4.54961686,7.93613806 4.53940765,7.91716555 4.49758284,7.83711483 C4.48786763,7.81897444 4.47815242,7.80066762 4.47107184,7.7868543 L4.46843721,7.76272259 L4.43550429,7.72344614 C4.41146326,7.69498736 3.85028633,7.00931388 4.07126621,5.68489892 L4.07340685,5.66110006 C4.07357152,5.65144737 4.10139983,4.69616441 4.67920789,3.82958629 C4.68332451,3.82409424 4.69501569,3.80595385 4.71181148,3.77566439 C4.9805441,3.29369584 5.55044826,2.48619881 6.2906156,2.50816699 C6.49611702,2.51399189 6.93692413,2.49085873 7.09137952,2.46073569 L7.13353366,2.45208156 L7.16630191,2.42478776 C7.21109068,2.38717558 8.28256319,1.51610397 10.095685,2.46822485 C10.3851654,2.68274745 10.6688825,3.04721952 10.8574234,3.2895352 C10.9570455,3.41768292 11.0229114,3.50222712 11.0742867,3.54816059 C12.1590971,4.51875471 12.3283723,6.05652729 11.5389702,7.7673825 L11.3998286,8.06944497 L11.6511068,8.0156895 C11.6725132,8.05546522 11.7084101,8.14100798 11.7424956,8.31375776 C11.7869551,8.53926445 11.5719031,8.82535007 11.4856189,8.91638487 L11.4731044,8.9308639 C11.2290714,9.25372957 11.1913632,9.55645774 11.1636996,9.77730452 C11.1445985,9.9312482 11.1312607,10.0201195 11.0803793,10.0588966 C11.0581496,10.0755392 11.0382252,10.0915161 11.0199474,10.1061615 C10.9996937,10.1223048 10.9756526,10.1416102 10.9606681,10.1514293 C10.9537522,10.1479343 10.9428844,10.1417766 10.9274059,10.1309589 L10.7442989,10.0029776 L10.676951,10.2175002 C10.6497814,10.3038751 10.6204711,10.4022327 10.5895142,10.5062487 C10.4816588,10.8683908 10.3339547,11.3645055 10.2060103,11.5435795 L10.1358632,11.641937 C10.0838292,11.7149978 10.0398637,11.7765753 10.0011676,11.8294986 C9.48198009,12.3204542 8.66277374,13.0282623 8.45364971,13.0347529 C7.99011888,13.0493983 7.16119731,13.0049627 6.95470791,12.9710119 C6.51999338,12.6611274 5.7320733,11.4750121 5.66785411,11.3315532 C5.6530343,11.286119 5.63739116,11.2371899 5.61944272,11.1811045 M5.8437159,13.3519601 C5.94761926,12.9358961 5.99504266,12.452929 5.97462425,12.1044337 C6.29670819,12.5341446 6.69717249,12.9966414 6.87682156,13.1189642 L6.90711984,13.1316126 C7.08133498,13.1655634 7.768645,13.2038413 8.2532529,13.2038413 C8.3271873,13.2038413 8.39667576,13.2030092 8.45875431,13.2011785 C8.67759355,13.1941886 9.21884607,12.7563228 9.64598603,12.379036 C9.62095701,12.5834066 9.62178033,12.8169018 9.65141996,13.0555561 C9.66014718,13.1262869 9.67924828,13.2531033 9.7144865,13.3998906 C9.77294243,13.2542682 9.83798495,13.0880091 9.91109602,12.8961203 C9.91109602,12.8961203 9.93184376,12.9019452 9.9688933,12.9140943 C9.95078019,12.7093908 9.95423815,12.513175 9.98157247,12.3494122 C10.1133041,12.243732 10.2129262,12.103768 10.4032785,11.8363221 L10.4730963,11.7384638 C10.6333149,11.5139557 10.7775611,11.0296572 10.9048468,10.6021098 C10.916538,10.5628334 10.9280646,10.5242226 10.9392617,10.4867769 C11.0589729,10.4980938 11.1485504,10.4276958 11.2241315,10.3671169 C11.240598,10.3541357 11.2582171,10.3399895 11.2779768,10.3250112 C11.4429707,10.1998591 11.4671764,10.0063062 11.4903941,9.81907735 C11.5157525,9.61736952 11.5440748,9.38870074 11.7294871,9.14006088 C11.7978229,9.06666719 12.1477352,8.66641361 12.0654029,8.24851892 C12.0217668,8.02817142 11.9661102,7.87689055 11.8934931,7.78385864 C12.6833891,5.97913939 12.4673492,4.35016558 11.292632,3.29902146 C11.2633217,3.27289264 11.1885639,3.17669864 11.1162762,3.08366673 C10.9142327,2.82437564 10.6092739,2.43227692 10.2789567,2.19129264 L10.2588676,2.17881072 C8.40606164,1.20006174 7.21998257,1.96861518 6.99258077,2.1397007 C6.84059535,2.16083676 6.47718059,2.17980928 6.29934283,2.17548221 C5.61730208,2.15584399 4.95189246,2.66743629 4.42496576,3.61223445 L4.41146326,3.63619974 C3.80533289,4.54471711 3.7495116,5.5131477 3.74457166,5.64079613 C3.54401018,6.86186079 3.95534234,7.61077601 4.12148891,7.85425667 C3.98317065,7.93763589 3.90758961,8.11005282 3.85160364,8.27098638 C3.70818078,8.68338903 4.07488883,9.01524168 4.33901084,9.16152979 C4.5061454,9.39802057 4.51075601,9.60522045 4.5145433,9.78912074 C4.51833058,9.96153766 4.5224472,10.1569213 4.69369838,10.2865669 C4.72020938,10.3068708 4.74441507,10.3303368 4.76746811,10.3524714 C4.8270767,10.4092225 4.92126484,10.4994252 5.04509262,10.5079129 C5.16414512,10.8377685 5.24499544,11.0917339 5.30592133,11.282957 C5.42382118,11.6532539 5.48441775,11.843312 5.63113391,11.9734568 C5.66834811,12.199962 5.65352829,12.6326686 5.56954935,13.064543 C5.64628305,13.2637545 5.71560684,13.4350064 5.77752073,13.5811281 C5.8009031,13.5090658 5.82329749,13.4338415 5.8437159,13.3519601" id="Fill-6" fill="#405562"></path>
                        <path d="M10.7256588,13.4468559 C10.4098321,13.2649528 10.15559,13.1586068 10.0082152,13.1038528 C9.76335895,13.7381008 9.60989155,14.0796061 9.53002922,14.2448667 C10.1404409,14.7128555 10.5870112,15.0016039 10.790866,15.0924723 C10.7959706,14.8035575 10.765837,14.1030721 10.7256588,13.4468559" id="Fill-8" fill="#FFFFFF"></path>
                        <path d="M5.33691121,14.7846016 C5.54554125,14.6201731 5.75960522,14.4512511 5.94682887,14.3234362 C5.85148807,14.1520179 5.68402417,13.8141739 5.44542518,13.2013948 C5.32653734,13.2430012 5.12317657,13.3275454 4.83682484,13.4934718 C4.70048256,14.2104333 4.60563575,15.0289144 4.65503513,15.2815484 C4.80504457,15.2041605 5.11889529,14.9565192 5.33691121,14.7846016" id="Fill-10" fill="#FFFFFF"></path>
                        <path d="M11.0678483,15.3705029 C11.0337628,15.4161035 10.9820581,15.4457273 10.9224495,15.4538822 C10.9130636,15.4552136 10.9010431,15.4568778 10.8854,15.4568778 C10.7874245,15.4568778 10.534829,15.3929704 9.73719375,14.8138093 C9.53613828,14.9579339 9.28420145,15.087413 8.99373311,15.1952568 C9.18639068,15.4708576 9.25587914,15.9155468 9.27959084,16.1428842 C10.6128801,15.9170446 11.8335387,15.3556911 12.8549532,14.5483604 C12.9125858,14.5027598 12.9677484,14.4541636 13.0242284,14.4070651 C13.0477754,14.3874269 13.0711578,14.3676222 13.0948695,14.3481504 C12.414146,14.2338161 11.6706854,14.1271372 11.090078,14.0514136 C11.1518273,15.2570007 11.1040745,15.3219067 11.0678483,15.3705029" id="Fill-12" fill="#FFFFFF"></path>
                        <path d="M6.41972911,15.1004275 C6.23744541,14.9729455 6.08974127,14.8324822 5.97875733,14.708828 C5.83862776,14.8120119 5.68845365,14.9295084 5.53959686,15.0468384 C5.17190082,15.3369182 4.94400502,15.5088359 4.78065775,15.5867231 C5.23760199,15.7882645 5.71743462,15.9463688 6.2142277,16.0588725 C6.21817965,15.7113759 6.3462887,15.3089587 6.40408598,15.1448631 L6.41972911,15.1004275 Z" id="Fill-14" fill="#FFFFFF"></path>
                        <path d="M2.96709131,14.4701238 C3.02571191,14.5183872 3.08301519,14.5683149 3.14311776,14.6145812 C3.5192117,14.9038289 3.92214596,15.1586265 4.34632195,15.3774762 C4.29988653,15.1756019 4.29231196,14.7989808 4.40082593,14.0801886 C3.92510992,14.1392697 3.36492097,14.2111655 2.77097578,14.3081917 C2.77822102,14.3143494 2.7853016,14.3206736 2.79238218,14.3268313 C2.84935613,14.3760933 2.90896471,14.4223596 2.96709131,14.4701238" id="Fill-16" fill="#FFFFFF"></path>
                        <g id="Group-20" transform="translate(7.080578, 16.087814)">
                            <mask id="mask-6" fill="white">
                                <use xlink:href="#path-5"></use>
                            </mask>
                            <g id="Clip-19"></g>
                            <path d="M0.0126551073,0.219952239 C0.215952853,0.266519403 0.421319034,0.300668657 0.626980707,0.328608955 C0.421319034,0.300047761 0.215952853,0.267140299 0.0126551073,0.219952239" id="Fill-18" fill="#D8E4E7" mask="url(#mask-6)"></path>
                        </g>
                        <g id="Group-23" transform="translate(8.233230, 16.087814)">
                            <mask id="mask-8" fill="white">
                                <use xlink:href="#path-7"></use>
                            </mask>
                            <g id="Clip-22"></g>
                            <path d="M0.184236247,0.309702687 C0.363619322,0.301631045 0.540545095,0.287350448 0.719313844,0.275553433 C0.54115942,0.287350448 0.363004997,0.301010149 0.184236247,0.309702687" id="Fill-21" fill="#D8E4E7" mask="url(#mask-8)"></path>
                        </g>
                        <g id="Group-26" transform="translate(8.562559, 16.087814)">
                            <mask id="mask-10" fill="white">
                                <use xlink:href="#path-9"></use>
                            </mask>
                            <g id="Clip-25"></g>
                            <path d="M0.245760956,0.279899701 C0.451467799,0.258789254 0.655497684,0.234574328 0.860086555,0.208496716 C0.65605667,0.234574328 0.451467799,0.258789254 0.245760956,0.279899701" id="Fill-24" fill="#D8E4E7" mask="url(#mask-10)"></path>
                        </g>
                        <g id="Group-29" transform="translate(7.409907, 16.087814)">
                            <mask id="mask-12" fill="white">
                                <use xlink:href="#path-11"></use>
                            </mask>
                            <g id="Clip-28"></g>
                            <path d="M0.115693343,0.287505672 C0.3190563,0.316066866 0.5238315,0.332831045 0.730018943,0.332831045 C0.5238315,0.332831045 0.3190563,0.316687761 0.115693343,0.287505672" id="Fill-27" fill="#D8E4E7" mask="url(#mask-12)"></path>
                        </g>
                        <g id="Group-32" transform="translate(8.891888, 16.087814)">
                            <mask id="mask-14" fill="white">
                                <use xlink:href="#path-13"></use>
                            </mask>
                            <g id="Clip-31"></g>
                            <path d="M0.190359026,0.224236418 C0.395795858,0.188845373 0.600736466,0.152833433 0.804684625,0.111233433 C0.60123269,0.152833433 0.395795858,0.188845373 0.190359026,0.224236418" id="Fill-30" fill="#D8E4E7" mask="url(#mask-14)"></path>
                        </g>
                        <path d="M4.40076006,14.0801886 C3.92520872,14.1392697 3.36518443,14.2111655 2.77140391,14.3080252 C3.25024855,14.7245885 3.77849256,15.0840678 4.34625608,15.3771433 C4.29998533,15.1751026 4.29241076,14.7984815 4.40076006,14.0801886" id="Fill-33" fill="#FFFFFF"></path>
                        <path d="M4.35659702,15.3824689 C4.55845077,15.6002761 4.76331727,15.8076284 4.97092262,16.0033645 C4.76359115,15.8064668 4.55845077,15.6002761 4.35659702,15.3824689" id="Fill-35" fill="#D8E4E7"></path>
                        <g id="Group-39" transform="translate(6.586584, 16.087814)">
                            <mask id="mask-16" fill="white">
                                <use xlink:href="#path-15"></use>
                            </mask>
                            <g id="Clip-38"></g>
                            <path d="M0.0899167902,0.107973731 C0.293253962,0.179997612 0.498029162,0.240845373 0.70424239,0.293621493 C0.498316767,0.240224478 0.293253962,0.180618507 0.0899167902,0.107973731" id="Fill-37" fill="#D8E4E7" mask="url(#mask-16)"></path>
                        </g>
                        <path d="M6.40402011,15.1449297 L6.41966325,15.100494 C6.23754421,14.973012 6.08984007,14.8325488 5.97869146,14.7088946 C5.83872656,14.8120785 5.68838779,14.9295749 5.53953099,15.046905 C5.17298761,15.3361527 4.94542114,15.5079039 4.78207386,15.5861239 C5.23868878,15.7873325 5.71769808,15.9457697 6.2143265,16.058107 C6.21844311,15.7107767 6.34622284,15.3088589 6.40402011,15.1449297" id="Fill-40" fill="#FFFFFF"></path>
                        <path d="M6.23653975,16.0632329 C6.43962492,16.1619553 6.64440012,16.2495015 6.85086535,16.3283553 C6.64468179,16.2495015 6.43962492,16.1619553 6.23653975,16.0632329" id="Fill-42" fill="#D8E4E7"></path>
                        <path d="M10.7256588,13.4468559 C10.4098321,13.2649528 10.15559,13.1586068 10.0082152,13.1038528 C9.76335895,13.7381008 9.60989155,14.0796061 9.53002922,14.2448667 C10.1404409,14.7128555 10.5870112,15.0016039 10.790866,15.0924723 C10.7959706,14.8035575 10.765837,14.1030721 10.7256588,13.4468559" id="Fill-44" fill="#FFFFFF"></path>
                        <path d="M11.090078,14.0514136 C11.1518273,15.2570007 11.1040745,15.3220731 11.0678483,15.3705029 C11.0337628,15.4161035 10.9820581,15.4457273 10.9224495,15.4538822 C10.9130636,15.4552136 10.9010431,15.4568778 10.8854,15.4568778 C10.7874245,15.4568778 10.534829,15.3929704 9.73719375,14.8138093 C9.53597361,14.9579339 9.28420145,15.087413 8.99373311,15.1952568 C9.18622602,15.4705247 9.25571448,15.9143818 9.27942618,16.1418856 C10.7210647,15.8984049 12.0309715,15.2638241 13.0994801,14.3489826 C13.0978334,14.3486497 13.0963515,14.3484833 13.0948695,14.3481504 C12.414146,14.2338161 11.6706854,14.1271372 11.090078,14.0514136" id="Fill-46" fill="#FFFFFF"></path>
                        <path d="M5.33691121,14.7846016 C5.54554125,14.6201731 5.75960522,14.4512511 5.94682887,14.3234362 C5.85148807,14.1520179 5.68402417,13.8141739 5.44542518,13.2013948 C5.32653734,13.2430012 5.12317657,13.3275454 4.83682484,13.4934718 C4.70048256,14.2104333 4.60563575,15.0289144 4.65503513,15.2815484 C4.80504457,15.2041605 5.11889529,14.9565192 5.33691121,14.7846016" id="Fill-48" fill="#FFFFFF"></path>
                        <g id="Group-52" transform="translate(6.586584, 16.087814)">
                            <mask id="mask-18" fill="white">
                                <use xlink:href="#path-17"></use>
                            </mask>
                            <g id="Clip-51"></g>
                            <path d="M0.0169246703,0.0866770149 C0.095558347,0.100336716 0.173577698,0.115859104 0.2528257,0.129518806 C0.173577698,0.115859104 0.095558347,0.100336716 0.0169246703,0.0866770149" id="Fill-50" fill="#405562" mask="url(#mask-18)"></path>
                        </g>
                        <g id="Group-55" transform="translate(7.903900, 16.087814)">
                            <mask id="mask-20" fill="white">
                                <use xlink:href="#path-19"></use>
                            </mask>
                            <g id="Clip-54"></g>
                            <path d="M0.678174507,0.29262806 C0.476263296,0.314359403 0.273815087,0.328019104 0.0697558842,0.328019104 L0.0638489073,0.328019104 L0.0697558842,0.328019104 C0.273815087,0.328019104 0.476531795,0.314359403 0.678174507,0.29262806" id="Fill-53" fill="#405562" mask="url(#mask-20)"></path>
                        </g>
                        <g id="Group-58" transform="translate(8.727223, 16.087814)">
                            <mask id="mask-22" fill="white">
                                <use xlink:href="#path-21"></use>
                            </mask>
                            <g id="Clip-57"></g>
                            <path d="M0.276047208,0.249010149 C0.48161688,0.224174328 0.685994844,0.196854925 0.890372807,0.167672836 C0.685994844,0.196854925 0.48161688,0.224174328 0.276047208,0.249010149" id="Fill-56" fill="#405562" mask="url(#mask-22)"></path>
                        </g>
                        <g id="Group-61" transform="translate(9.221217, 16.087814)">
                            <mask id="mask-24" fill="white">
                                <use xlink:href="#path-23"></use>
                            </mask>
                            <g id="Clip-60"></g>
                            <path d="M0.165775763,0.100957612 C0.127687576,0.107166567 0.0895993887,0.115238209 0.0515112015,0.121447164 C0.0895993887,0.115238209 0.128301901,0.11089194 0.166390089,0.104682985 C0.165775763,0.103441194 0.165775763,0.102199403 0.165775763,0.100957612" id="Fill-59" fill="#405562" mask="url(#mask-24)"></path>
                        </g>
                        <path d="M4.38492566,15.397012 C4.37202483,15.3901821 4.35912399,15.3839732 4.34622315,15.3771433 C4.34683748,15.3777642 4.34683748,15.3783851 4.34683748,15.3783851 C4.35912399,15.385215 4.37202483,15.390803 4.38492566,15.397012" id="Fill-62" fill="#405562"></path>
                        <path d="M4.9353424,15.6560457 C4.86530928,15.625001 4.79589049,15.5920935 4.72585737,15.5604278 C4.79466184,15.5914726 4.861009,15.6281054 4.92981347,15.6585293 C4.93165645,15.6579084 4.93349942,15.6566666 4.9353424,15.6560457" id="Fill-64" fill="#405562"></path>
                        <path d="M6.29724399,16.0773214 C6.26959934,16.0711125 6.24195468,16.0642826 6.21431003,16.0580737 L6.21431003,16.0605573 C6.24134036,16.0667662 6.26959934,16.0711125 6.29724399,16.0773214" id="Fill-66" fill="#405562"></path>
                        <g id="Group-70" transform="translate(8.397894, 16.087814)">
                            <mask id="mask-26" fill="white">
                                <use xlink:href="#path-25"></use>
                            </mask>
                            <g id="Clip-69"></g>
                            <path d="M0.144489381,0.306939701 C0.350034412,0.288933731 0.554655646,0.26968597 0.75881498,0.244229254 C0.554655646,0.269065075 0.350034412,0.288933731 0.144489381,0.306939701" id="Fill-68" fill="#405562" mask="url(#mask-26)"></path>
                        </g>
                        <g id="Group-73" transform="translate(7.409907, 16.087814)">
                            <mask id="mask-28" fill="white">
                                <use xlink:href="#path-27"></use>
                            </mask>
                            <g id="Clip-72"></g>
                            <path d="M0.0434021036,0.274280597 C0.158895316,0.281731343 0.272545552,0.294149254 0.388038765,0.300979104 C0.272545552,0.294149254 0.158895316,0.281731343 0.0434021036,0.274280597" id="Fill-71" fill="#405562" mask="url(#mask-28)"></path>
                        </g>
                        <g id="Group-76" transform="translate(6.915913, 16.087814)">
                            <mask id="mask-30" fill="white">
                                <use xlink:href="#path-29"></use>
                            </mask>
                            <g id="Clip-75"></g>
                            <path d="M0.176741475,0.200766567 C0.276876548,0.213184478 0.375168643,0.22808597 0.475303716,0.23926209 C0.375168643,0.22808597 0.276876548,0.212563582 0.176741475,0.200766567" id="Fill-74" fill="#405562" mask="url(#mask-30)"></path>
                        </g>
                        <path d="M4.83680837,13.493505 C5.1231601,13.3275787 5.32652088,13.2430345 5.44540871,13.2014281 C5.68417237,13.8142072 5.8514716,14.1520512 5.9468124,14.3234695 C5.75958876,14.4512844 5.54552478,14.6202064 5.33689474,14.7846349 C5.11887882,14.9565525 4.80502811,15.2040274 4.65501866,15.2815817 C4.60561928,15.0289477 4.70046609,14.2104665 4.83680837,13.493505 M10.0080999,13.1039027 C10.1556394,13.1584903 10.4098815,13.2650027 10.7257082,13.4469059 C10.7658864,14.103122 10.7958554,14.8036074 10.7907508,15.0923558 C10.5870606,15.0016539 10.1404903,14.7129054 9.53007862,14.2449166 C9.60977628,14.0794896 9.76340835,13.7381507 10.0080999,13.1039027 M4.40077653,14.0801553 C4.29226256,14.7984482 4.3000018,15.1750693 4.34627255,15.37711 C4.34973051,15.3789407 4.35318846,15.3807714 4.35664642,15.3824356 C4.47800422,15.4450117 4.60117334,15.5039263 4.7259891,15.560511 C4.7445962,15.5688323 4.7632033,15.5778193 4.78197506,15.5859742 C4.94532234,15.5079206 5.17288881,15.3361693 5.53959686,15.0469216 C5.68845365,14.9295916 5.83862776,14.8119287 5.97875733,14.7089112 C6.08974127,14.8325655 6.23744541,14.9730287 6.41972911,15.1005107 L6.40408598,15.1449463 C6.3462887,15.3088755 6.21850898,15.7107934 6.2142277,16.0579572 C6.22163761,16.0596214 6.22904751,16.0616185 6.23645742,16.0632828 C6.35518059,16.0897445 6.47505642,16.113044 6.5955909,16.1343465 C6.61683263,16.1380079 6.63774503,16.1421685 6.6588221,16.1456635 C6.77523997,16.1651353 6.89264583,16.1811121 7.01071034,16.1954247 C7.037386,16.1985868 7.063897,16.2027475 7.09073733,16.2057431 C7.20402657,16.2183915 7.31846846,16.227212 7.43323969,16.2348676 C7.46403197,16.2368647 7.49465958,16.2401932 7.52561652,16.2420239 C7.66788673,16.2498459 7.81114493,16.2540065 7.95522645,16.254173 L7.95884907,16.254173 C8.08399416,16.254173 8.20815126,16.2505116 8.33197904,16.2446867 C8.37989643,16.2423567 8.42764917,16.2386954 8.4754019,16.2355333 C8.54851298,16.2308734 8.62162406,16.2253813 8.69424114,16.2187243 C8.75483771,16.2130658 8.81510496,16.2065752 8.87520753,16.1995854 C8.93201682,16.1929283 8.98849677,16.1854392 9.04497673,16.1777836 C9.11314787,16.1682974 9.18131901,16.1586447 9.2488315,16.1474941 C9.2590407,16.1458299 9.26924991,16.1436664 9.27945911,16.1420021 C9.25558274,15.9143319 9.18625895,15.4704748 8.99376604,15.1952068 C9.28423438,15.0873631 9.53600655,14.9580504 9.73722668,14.8137594 C10.534862,15.3930869 10.7874575,15.4568279 10.8852682,15.4568279 C10.901076,15.4568279 10.9129319,15.4551636 10.9224824,15.4538322 C10.982091,15.4456774 11.0337957,15.41622 11.0678813,15.370453 C11.1041075,15.3220232 11.1518602,15.2571172 11.090111,14.0513637 C11.6705537,14.1270873 12.414179,14.2337661 13.0949024,14.3481005 C13.0963844,14.3484334 13.0978664,14.3487662 13.099513,14.3489326 C13.2067097,14.2570657 13.3112717,14.1622031 13.4135284,14.0648441 C12.6442154,13.9293737 11.7492633,13.7998946 11.0715039,13.7126876 C11.0647526,13.5958568 11.0573427,13.4715369 11.0489448,13.337065 L11.0433462,13.2490258 L10.9680945,13.2042573 C10.3840292,12.856095 9.97187373,12.7402628 9.95441928,12.7354364 L9.81099642,12.6959935 L9.75748043,12.8362903 C9.35586348,13.8909294 9.18280099,14.2011467 9.17835505,14.2088023 L9.10540863,14.3351193 L9.22034452,14.4244899 C9.30185349,14.487898 9.37891652,14.5468127 9.45268626,14.6027317 C9.0976694,14.8282384 8.55806353,15.0344397 7.88030406,15.1332965 C7.09370129,15.2477973 6.54602686,14.8330647 6.25358254,14.5200182 C6.25440586,14.5196853 6.25522918,14.5190196 6.25588784,14.5185203 L6.41083722,14.4234913 L6.30331124,14.2760382 C6.30133527,14.2733754 6.09649252,13.9861248 5.69816886,12.9401399 L5.64992214,12.8138229 L5.5180258,12.8356246 C5.48575154,12.8409503 5.18770862,12.897535 4.60594861,13.2441995 L4.54238808,13.2819781 L4.52806226,13.3552054 C4.5013866,13.4908422 4.47783956,13.6179914 4.45676249,13.7378178 C3.89130428,13.807883 3.19707835,13.8944243 2.46003963,14.0224056 C2.56130835,14.1204303 2.66504705,14.2156257 2.77142038,14.3081584 C3.36503624,14.2111322 3.92522518,14.1392364 4.40077653,14.0801553" id="Fill-77" fill="#405562"></path>
                    </g>
                </g>
            </g>
        </g>
    </g>
</svg>