<?xml version="1.0" encoding="UTF-8" standalone="no"?>
<svg width="1300px" height="711px" viewBox="0 0 1300 711" version="1.1" xmlns="http://www.w3.org/2000/svg" xmlns:xlink="http://www.w3.org/1999/xlink">
    <!-- Generator: Sketch 3.6.1 (26313) - http://www.bohemiancoding.com/sketch -->
    <title>Desktop 404</title>
    <desc>Created with Sketch.</desc>
    <defs></defs>
    <g id="Page-1" stroke="none" stroke-width="1" fill="none" fill-rule="evenodd" stroke-opacity="0.576624774" fill-opacity="0.202643795">
        <g id="Desktop-404" stroke="#007DC1" fill="#5F81BF">
            <g id="Group" transform="translate(37.000000, 30.007848)">
                <path d="M463.998586,234.586941 L463.998586,236.637527 C463.998586,238.893171 462.078269,240.738699 459.731214,240.738699 L429.859609,240.738699 C427.491218,240.738699 425.592237,238.893171 425.592237,236.637527 L425.592237,207.929321 C425.592237,205.673677 427.491218,203.828149 429.859609,203.828149 L459.731214,203.828149 C462.078269,203.828149 463.998586,205.673677 463.998586,207.929321 L463.998586,209.979908 L444.795412,209.979908 C442.42702,209.979908 440.528039,211.825435 440.528039,214.08108 L440.528039,230.485768 C440.528039,232.741413 442.42702,234.586941 444.795412,234.586941 L463.998586,234.586941 L463.998586,234.586941 Z M444.795412,230.485768 L466.132272,230.485768 L466.132272,214.08108 L444.795412,214.08108 L444.795412,230.485768 L444.795412,230.485768 Z M453.330156,225.359303 C451.559196,225.359303 450.129627,223.985411 450.129627,222.283424 C450.129627,220.581438 451.559196,219.207545 453.330156,219.207545 C455.101115,219.207545 456.530685,220.581438 456.530685,222.283424 C456.530685,223.985411 455.101115,225.359303 453.330156,225.359303 L453.330156,225.359303 Z" id="Shape"></path>
                <path d="M900.42408,234.586941 L900.42408,236.637527 C900.42408,238.893171 898.503763,240.738699 896.156708,240.738699 L866.285103,240.738699 C863.916712,240.738699 862.017731,238.893171 862.017731,236.637527 L862.017731,207.929321 C862.017731,205.673677 863.916712,203.828149 866.285103,203.828149 L896.156708,203.828149 C898.503763,203.828149 900.42408,205.673677 900.42408,207.929321 L900.42408,209.979908 L881.220905,209.979908 C878.852514,209.979908 876.953533,211.825435 876.953533,214.08108 L876.953533,230.485768 C876.953533,232.741413 878.852514,234.586941 881.220905,234.586941 L900.42408,234.586941 L900.42408,234.586941 Z M881.220905,230.485768 L902.557766,230.485768 L902.557766,214.08108 L881.220905,214.08108 L881.220905,230.485768 L881.220905,230.485768 Z M889.75565,225.359303 C887.98469,225.359303 886.555121,223.985411 886.555121,222.283424 C886.555121,220.581438 887.98469,219.207545 889.75565,219.207545 C891.526609,219.207545 892.956179,220.581438 892.956179,222.283424 C892.956179,223.985411 891.526609,225.359303 889.75565,225.359303 L889.75565,225.359303 Z" id="Shape-Copy-11"></path>
                <path d="M462.450978,643.731036 L462.450978,645.781622 C462.450978,648.037267 460.53066,649.882794 458.183606,649.882794 L428.312001,649.882794 C425.943609,649.882794 424.044629,648.037267 424.044629,645.781622 L424.044629,617.073417 C424.044629,614.817772 425.943609,612.972244 428.312001,612.972244 L458.183606,612.972244 C460.53066,612.972244 462.450978,614.817772 462.450978,617.073417 L462.450978,619.124003 L443.247803,619.124003 C440.879412,619.124003 438.980431,620.96953 438.980431,623.225175 L438.980431,639.629864 C438.980431,641.885508 440.879412,643.731036 443.247803,643.731036 L462.450978,643.731036 L462.450978,643.731036 Z M443.247803,639.629864 L464.584664,639.629864 L464.584664,623.225175 L443.247803,623.225175 L443.247803,639.629864 L443.247803,639.629864 Z M451.782548,634.503398 C450.011588,634.503398 448.582019,633.129506 448.582019,631.427519 C448.582019,629.725533 450.011588,628.35164 451.782548,628.35164 C453.553507,628.35164 454.983077,629.725533 454.983077,631.427519 C454.983077,633.129506 453.553507,634.503398 451.782548,634.503398 L451.782548,634.503398 Z" id="Shape-Copy"></path>
                <path d="M898.876472,643.731036 L898.876472,645.781622 C898.876472,648.037267 896.956154,649.882794 894.6091,649.882794 L864.737495,649.882794 C862.369103,649.882794 860.470123,648.037267 860.470123,645.781622 L860.470123,617.073417 C860.470123,614.817772 862.369103,612.972244 864.737495,612.972244 L894.6091,612.972244 C896.956154,612.972244 898.876472,614.817772 898.876472,617.073417 L898.876472,619.124003 L879.673297,619.124003 C877.304906,619.124003 875.405925,620.96953 875.405925,623.225175 L875.405925,639.629864 C875.405925,641.885508 877.304906,643.731036 879.673297,643.731036 L898.876472,643.731036 L898.876472,643.731036 Z M879.673297,639.629864 L901.010158,639.629864 L901.010158,623.225175 L879.673297,623.225175 L879.673297,639.629864 L879.673297,639.629864 Z M888.208042,634.503398 C886.437082,634.503398 885.007512,633.129506 885.007512,631.427519 C885.007512,629.725533 886.437082,628.35164 888.208042,628.35164 C889.979001,628.35164 891.408571,629.725533 891.408571,631.427519 C891.408571,633.129506 889.979001,634.503398 888.208042,634.503398 L888.208042,634.503398 Z" id="Shape-Copy-12"></path>
                <path d="M19.7892524,43.8256687 C30.3936721,43.8256687 38.9924269,35.5618068 38.9924269,25.3703939 C28.3880072,25.3703939 19.7892524,33.6342558 19.7892524,43.8256687 L19.7892524,43.8256687 Z M6.13366166,19.7312821 C6.13366166,22.561091 8.52339004,24.8577474 11.4678768,24.8577474 C12.5987304,24.8577474 13.6228997,24.5296536 14.497711,23.9554895 L14.4550373,24.3451009 C14.4550373,27.1749097 16.8447656,29.4715661 19.7892524,29.4715661 C22.7337392,29.4715661 25.1234675,27.1749097 25.1234675,24.3451009 L25.0807938,23.9554895 C25.9342682,24.5296536 26.9797744,24.8577474 28.110628,24.8577474 C31.0551148,24.8577474 33.4448431,22.561091 33.4448431,19.7312821 C33.4448431,17.6806961 32.1859684,15.9376979 30.3936721,15.1174634 C32.1859684,14.297229 33.4448431,12.5542308 33.4448431,10.5036447 C33.4448431,7.67383594 31.0551148,5.37717952 28.110628,5.37717952 C26.9797744,5.37717952 25.9556051,5.70527329 25.0807938,6.2794374 L25.1234675,5.88982604 C25.1234675,3.06001723 22.7337392,0.763360812 19.7892524,0.763360812 C16.8447656,0.763360812 14.4550373,3.06001723 14.4550373,5.88982604 L14.497711,6.2794374 C13.6442366,5.70527329 12.5987304,5.37717952 11.4678768,5.37717952 C8.52339004,5.37717952 6.13366166,7.67383594 6.13366166,10.5036447 C6.13366166,12.5542308 7.39253643,14.297229 9.18483272,15.1174634 C7.39253643,15.9376979 6.13366166,17.6806961 6.13366166,19.7312821 L6.13366166,19.7312821 Z M19.7892524,9.99099822 C22.7337392,9.99099822 25.1234675,12.2876546 25.1234675,15.1174634 C25.1234675,17.9472722 22.7337392,20.2439287 19.7892524,20.2439287 C16.8447656,20.2439287 14.4550373,17.9472722 14.4550373,15.1174634 C14.4550373,12.2876546 16.8447656,9.99099822 19.7892524,9.99099822 L19.7892524,9.99099822 Z M0.586077919,25.3703939 C0.586077919,35.5618068 9.18483272,43.8256687 19.7892524,43.8256687 C19.7892524,33.6342558 11.1904976,25.3703939 0.586077919,25.3703939 L0.586077919,25.3703939 Z" id="Shape"></path>
                <g id="Shape-+-Shape" transform="translate(116.070610, 105.633566)">
                    <path d="M212.625615,20.9296282 L218.663946,15.1264696 L203.68547,0.751861108 C200.35692,3.95077541 200.35692,9.13875822 203.68547,12.3581784 L212.625615,20.9296282 L212.625615,20.9296282 Z M227.092006,17.2180674 C230.356546,18.6739835 234.943971,17.6486905 238.336532,14.3882586 C242.411872,10.4716392 243.201336,4.85303329 240.064817,1.83867174 C236.949636,-1.15518396 231.103336,-0.416972964 227.006659,3.49964647 C223.614098,6.76007835 222.547255,11.1688384 224.062172,14.3062352 L203.237396,34.3199554 L206.245893,37.2112818 L220.94699,23.1237554 L235.62675,37.2317877 L238.635248,34.3404613 L223.955488,20.232429 L227.092006,17.2180674 L227.092006,17.2180674 Z" id="Shape"></path>
                    <path d="M649.051109,20.9296282 L655.08944,15.1264696 L640.110964,0.751861108 C636.782414,3.95077541 636.782414,9.13875822 640.110964,12.3581784 L649.051109,20.9296282 L649.051109,20.9296282 Z M663.5175,17.2180674 C666.78204,18.6739835 671.369465,17.6486905 674.762026,14.3882586 C678.837366,10.4716392 679.62683,4.85303329 676.490311,1.83867174 C673.37513,-1.15518396 667.52883,-0.416972964 663.432153,3.49964647 C660.039592,6.76007835 658.972749,11.1688384 660.487666,14.3062352 L639.66289,34.3199554 L642.671387,37.2112818 L657.372484,23.1237554 L672.052244,37.2317877 L675.060742,34.3404613 L660.380982,20.232429 L663.5175,17.2180674 L663.5175,17.2180674 Z" id="Shape-Copy-13"></path>
                    <path d="M1076.19095,20.9296282 L1082.22929,15.1264696 L1067.25081,0.751861108 C1063.92226,3.95077541 1063.92226,9.13875822 1067.25081,12.3581784 L1076.19095,20.9296282 L1076.19095,20.9296282 Z M1090.65735,17.2180674 C1093.92188,18.6739835 1098.50931,17.6486905 1101.90187,14.3882586 C1105.97721,10.4716392 1106.76668,4.85303329 1103.63016,1.83867174 C1100.51497,-1.15518396 1094.66868,-0.416972964 1090.572,3.49964647 C1087.17944,6.76007835 1086.11259,11.1688384 1087.62751,14.3062352 L1066.80274,34.3199554 L1069.81123,37.2112818 L1084.51233,23.1237554 L1099.19209,37.2317877 L1102.20059,34.3404613 L1087.52083,20.232429 L1090.65735,17.2180674 L1090.65735,17.2180674 Z" id="Shape-Copy-31"></path>
                    <path d="M211.078007,430.073723 L217.116338,424.270565 L202.137862,409.895956 C198.809312,413.094871 198.809312,418.282853 202.137862,421.502274 L211.078007,430.073723 L211.078007,430.073723 Z M225.544398,426.362163 C228.808938,427.818079 233.396363,426.792786 236.788924,423.532354 C240.864264,419.615734 241.653728,413.997129 238.517209,410.982767 C235.402028,407.988911 229.555728,408.727122 225.459051,412.643742 C222.06649,415.904174 220.999647,420.312934 222.514564,423.45033 L201.689788,443.464051 L204.698285,446.355377 L219.399382,432.267851 L234.079142,446.375883 L237.08764,443.484556 L222.40788,429.376524 L225.544398,426.362163 L225.544398,426.362163 Z" id="Shape-Copy-2"></path>
                    <path d="M647.503501,430.073723 L653.541832,424.270565 L638.563356,409.895956 C635.234806,413.094871 635.234806,418.282853 638.563356,421.502274 L647.503501,430.073723 L647.503501,430.073723 Z M661.969892,426.362163 C665.234432,427.818079 669.821857,426.792786 673.214418,423.532354 C677.289758,419.615734 678.079222,413.997129 674.942703,410.982767 C671.827522,407.988911 665.981222,408.727122 661.884545,412.643742 C658.491984,415.904174 657.425141,420.312934 658.940058,423.45033 L638.115282,443.464051 L641.123779,446.355377 L655.824876,432.267851 L670.504636,446.375883 L673.513134,443.484556 L658.833374,429.376524 L661.969892,426.362163 L661.969892,426.362163 Z" id="Shape-Copy-14"></path>
                    <path d="M1074.64335,430.073723 L1080.68168,424.270565 L1065.7032,409.895956 C1062.37465,413.094871 1062.37465,418.282853 1065.7032,421.502274 L1074.64335,430.073723 L1074.64335,430.073723 Z M1089.10974,426.362163 C1092.37428,427.818079 1096.9617,426.792786 1100.35426,423.532354 C1104.4296,419.615734 1105.21907,413.997129 1102.08255,410.982767 C1098.96737,407.988911 1093.12107,408.727122 1089.02439,412.643742 C1085.63183,415.904174 1084.56499,420.312934 1086.0799,423.45033 L1065.25513,443.464051 L1068.26362,446.355377 L1082.96472,432.267851 L1097.64448,446.375883 L1100.65298,443.484556 L1085.97322,429.376524 L1089.10974,426.362163 L1089.10974,426.362163 Z" id="Shape-Copy-32"></path>
                    <path d="M35.686585,0 L5.81498024,0 C3.46792558,0 1.568945,1.84552748 1.568945,4.10117218 L1.54760813,32.8093774 C1.54760813,35.0650221 3.46792558,36.9105496 5.81498024,36.9105496 L35.686585,36.9105496 C38.0336397,36.9105496 39.9539571,35.0650221 39.9539571,32.8093774 L39.9539571,4.10117218 C39.9539571,1.84552748 38.0336397,0 35.686585,0 L35.686585,0 Z M33.5528989,22.556447 L25.0181547,22.556447 L25.0181547,30.7587914 L16.4834105,30.7587914 L16.4834105,22.556447 L7.9486663,22.556447 L7.9486663,14.3541026 L16.4834105,14.3541026 L16.4834105,6.15175827 L25.0181547,6.15175827 L25.0181547,14.3541026 L33.5528989,14.3541026 L33.5528989,22.556447 L33.5528989,22.556447 Z" id="Shape"></path>
                    <path d="M472.112079,0 L442.240474,0 C439.89342,0 437.994439,1.84552748 437.994439,4.10117218 L437.973102,32.8093774 C437.973102,35.0650221 439.89342,36.9105496 442.240474,36.9105496 L472.112079,36.9105496 C474.459134,36.9105496 476.379451,35.0650221 476.379451,32.8093774 L476.379451,4.10117218 C476.379451,1.84552748 474.459134,0 472.112079,0 L472.112079,0 Z M469.978393,22.556447 L461.443649,22.556447 L461.443649,30.7587914 L452.908904,30.7587914 L452.908904,22.556447 L444.37416,22.556447 L444.37416,14.3541026 L452.908904,14.3541026 L452.908904,6.15175827 L461.443649,6.15175827 L461.443649,14.3541026 L469.978393,14.3541026 L469.978393,22.556447 L469.978393,22.556447 Z" id="Shape-Copy-15"></path>
                    <path d="M899.251924,0 L869.380319,0 C867.033265,0 865.134284,1.84552748 865.134284,4.10117218 L865.112947,32.8093774 C865.112947,35.0650221 867.033265,36.9105496 869.380319,36.9105496 L899.251924,36.9105496 C901.598979,36.9105496 903.519296,35.0650221 903.519296,32.8093774 L903.519296,4.10117218 C903.519296,1.84552748 901.598979,0 899.251924,0 L899.251924,0 Z M897.118238,22.556447 L888.583494,22.556447 L888.583494,30.7587914 L880.04875,30.7587914 L880.04875,22.556447 L871.514005,22.556447 L871.514005,14.3541026 L880.04875,14.3541026 L880.04875,6.15175827 L888.583494,6.15175827 L888.583494,14.3541026 L897.118238,14.3541026 L897.118238,22.556447 L897.118238,22.556447 Z" id="Shape-Copy-33"></path>
                    <path d="M34.1389769,409.144095 L4.26737211,409.144095 C1.92031745,409.144095 0.0213368605,410.989623 0.0213368605,413.245267 L0,441.953473 C0,444.209117 1.92031745,446.054645 4.26737211,446.054645 L34.1389769,446.054645 C36.4860315,446.054645 38.406349,444.209117 38.406349,441.953473 L38.406349,413.245267 C38.406349,410.989623 36.4860315,409.144095 34.1389769,409.144095 L34.1389769,409.144095 Z M32.0052908,431.700542 L23.4705466,431.700542 L23.4705466,439.902887 L14.9358024,439.902887 L14.9358024,431.700542 L6.40105816,431.700542 L6.40105816,423.498198 L14.9358024,423.498198 L14.9358024,415.295853 L23.4705466,415.295853 L23.4705466,423.498198 L32.0052908,423.498198 L32.0052908,431.700542 L32.0052908,431.700542 Z" id="Shape-Copy-3"></path>
                    <path d="M470.564471,409.144095 L440.692866,409.144095 C438.345811,409.144095 436.446831,410.989623 436.446831,413.245267 L436.425494,441.953473 C436.425494,444.209117 438.345811,446.054645 440.692866,446.054645 L470.564471,446.054645 C472.911525,446.054645 474.831843,444.209117 474.831843,441.953473 L474.831843,413.245267 C474.831843,410.989623 472.911525,409.144095 470.564471,409.144095 L470.564471,409.144095 Z M468.430785,431.700542 L459.896041,431.700542 L459.896041,439.902887 L451.361296,439.902887 L451.361296,431.700542 L442.826552,431.700542 L442.826552,423.498198 L451.361296,423.498198 L451.361296,415.295853 L459.896041,415.295853 L459.896041,423.498198 L468.430785,423.498198 L468.430785,431.700542 L468.430785,431.700542 Z" id="Shape-Copy-16"></path>
                    <path d="M897.704316,409.144095 L867.832711,409.144095 C865.485657,409.144095 863.586676,410.989623 863.586676,413.245267 L863.565339,441.953473 C863.565339,444.209117 865.485657,446.054645 867.832711,446.054645 L897.704316,446.054645 C900.051371,446.054645 901.971688,444.209117 901.971688,441.953473 L901.971688,413.245267 C901.971688,410.989623 900.051371,409.144095 897.704316,409.144095 L897.704316,409.144095 Z M895.57063,431.700542 L887.035886,431.700542 L887.035886,439.902887 L878.501142,439.902887 L878.501142,431.700542 L869.966397,431.700542 L869.966397,423.498198 L878.501142,423.498198 L878.501142,415.295853 L887.035886,415.295853 L887.035886,423.498198 L895.57063,423.498198 L895.57063,431.700542 L895.57063,431.700542 Z" id="Shape-Copy-34"></path>
                </g>
                <path d="M41.7063226,207.387038 C41.2795854,206.177192 40.0847212,205.315946 38.6764885,205.315946 L15.2059419,205.315946 C13.7977091,205.315946 12.6241817,206.177192 12.1761077,207.387038 L7.73804067,219.670049 L7.73804067,236.074737 C7.73804067,237.20256 8.6981994,238.125323 9.87172673,238.125323 L12.0054128,238.125323 C13.1789401,238.125323 14.1390988,237.20256 14.1390988,236.074737 L14.1390988,234.024151 L39.7433315,234.024151 L39.7433315,236.074737 C39.7433315,237.20256 40.7034902,238.125323 41.8770175,238.125323 L44.0107036,238.125323 C45.1842309,238.125323 46.1443896,237.20256 46.1443896,236.074737 L46.1443896,219.670049 L41.7063226,207.387038 L41.7063226,207.387038 Z M15.2059419,227.872393 C13.4349824,227.872393 12.0054128,226.4985 12.0054128,224.796514 C12.0054128,223.094527 13.4349824,221.720635 15.2059419,221.720635 C16.9769013,221.720635 18.4064709,223.094527 18.4064709,224.796514 C18.4064709,226.4985 16.9769013,227.872393 15.2059419,227.872393 L15.2059419,227.872393 Z M38.6764885,227.872393 C36.905529,227.872393 35.4759594,226.4985 35.4759594,224.796514 C35.4759594,223.094527 36.905529,221.720635 38.6764885,221.720635 C40.4474479,221.720635 41.8770175,223.094527 41.8770175,224.796514 C41.8770175,226.4985 40.4474479,227.872393 38.6764885,227.872393 L38.6764885,227.872393 Z M12.0054128,217.619463 L15.2059419,208.391825 L38.6764885,208.391825 L41.8770175,217.619463 L12.0054128,217.619463 L12.0054128,217.619463 Z" id="Shape"></path>
                <path d="M40.1587145,616.531133 C39.7319773,615.321287 38.5371131,614.460041 37.1288803,614.460041 L13.6583337,614.460041 C12.2501009,614.460041 11.0765736,615.321287 10.6284995,616.531133 L6.19043254,628.814144 L6.19043254,645.218833 C6.19043254,646.346655 7.15059126,647.269419 8.32411859,647.269419 L10.4578046,647.269419 C11.631332,647.269419 12.5914907,646.346655 12.5914907,645.218833 L12.5914907,643.168246 L38.1957233,643.168246 L38.1957233,645.218833 C38.1957233,646.346655 39.1558821,647.269419 40.3294094,647.269419 L42.4630955,647.269419 C43.6366228,647.269419 44.5967815,646.346655 44.5967815,645.218833 L44.5967815,628.814144 L40.1587145,616.531133 L40.1587145,616.531133 Z M13.6583337,637.016488 C11.8873743,637.016488 10.4578046,635.642596 10.4578046,633.940609 C10.4578046,632.238623 11.8873743,630.86473 13.6583337,630.86473 C15.4292932,630.86473 16.8588628,632.238623 16.8588628,633.940609 C16.8588628,635.642596 15.4292932,637.016488 13.6583337,637.016488 L13.6583337,637.016488 Z M37.1288803,637.016488 C35.3579209,637.016488 33.9283512,635.642596 33.9283512,633.940609 C33.9283512,632.238623 35.3579209,630.86473 37.1288803,630.86473 C38.8998397,630.86473 40.3294094,632.238623 40.3294094,633.940609 C40.3294094,635.642596 38.8998397,637.016488 37.1288803,637.016488 L37.1288803,637.016488 Z M10.4578046,626.763558 L13.6583337,617.53592 L37.1288803,617.53592 L40.3294094,626.763558 L10.4578046,626.763558 L10.4578046,626.763558 Z" id="Shape-Copy-4"></path>
                <g id="Shape-+-Shape" transform="translate(116.070610, 291.608155)">
                    <path d="M241.729093,28.7082053 L241.729093,24.6070331 L224.659604,14.3541026 L224.659604,3.07587914 C224.659604,1.37389268 223.230034,0 221.459075,0 C219.688116,0 218.258546,1.37389268 218.258546,3.07587914 L218.258546,14.3541026 L201.189058,24.6070331 L201.189058,28.7082053 L218.258546,23.58174 L218.258546,34.8599635 L213.991174,37.9358427 L213.991174,41.0117218 L221.459075,38.9611357 L228.926976,41.0117218 L228.926976,37.9358427 L224.659604,34.8599635 L224.659604,23.58174 L241.729093,28.7082053 L241.729093,28.7082053 Z" id="Shape"></path>
                    <path d="M678.154586,28.7082053 L678.154586,24.6070331 L661.085098,14.3541026 L661.085098,3.07587914 C661.085098,1.37389268 659.655528,0 657.884569,0 C656.11361,0 654.68404,1.37389268 654.68404,3.07587914 L654.68404,14.3541026 L637.614551,24.6070331 L637.614551,28.7082053 L654.68404,23.58174 L654.68404,34.8599635 L650.416668,37.9358427 L650.416668,41.0117218 L657.884569,38.9611357 L665.35247,41.0117218 L665.35247,37.9358427 L661.085098,34.8599635 L661.085098,23.58174 L678.154586,28.7082053 L678.154586,28.7082053 Z" id="Shape-Copy-17"></path>
                    <path d="M1105.29443,28.7082053 L1105.29443,24.6070331 L1088.22494,14.3541026 L1088.22494,3.07587914 C1088.22494,1.37389268 1086.79537,0 1085.02441,0 C1083.25345,0 1081.82389,1.37389268 1081.82389,3.07587914 L1081.82389,14.3541026 L1064.7544,24.6070331 L1064.7544,28.7082053 L1081.82389,23.58174 L1081.82389,34.8599635 L1077.55651,37.9358427 L1077.55651,41.0117218 L1085.02441,38.9611357 L1092.49232,41.0117218 L1092.49232,37.9358427 L1088.22494,34.8599635 L1088.22494,23.58174 L1105.29443,28.7082053 L1105.29443,28.7082053 Z" id="Shape-Copy-35"></path>
                    <path d="M22.8844687,8.20234436 L22.8844687,0 L1.54760813,0 L1.54760813,36.9105496 L44.2213292,36.9105496 L44.2213292,8.20234436 L22.8844687,8.20234436 L22.8844687,8.20234436 Z M10.0823523,32.8093774 L5.81498024,32.8093774 L5.81498024,28.7082053 L10.0823523,28.7082053 L10.0823523,32.8093774 L10.0823523,32.8093774 Z M10.0823523,24.6070331 L5.81498024,24.6070331 L5.81498024,20.5058609 L10.0823523,20.5058609 L10.0823523,24.6070331 L10.0823523,24.6070331 Z M10.0823523,16.4046887 L5.81498024,16.4046887 L5.81498024,12.3035165 L10.0823523,12.3035165 L10.0823523,16.4046887 L10.0823523,16.4046887 Z M10.0823523,8.20234436 L5.81498024,8.20234436 L5.81498024,4.10117218 L10.0823523,4.10117218 L10.0823523,8.20234436 L10.0823523,8.20234436 Z M18.6170966,32.8093774 L14.3497245,32.8093774 L14.3497245,28.7082053 L18.6170966,28.7082053 L18.6170966,32.8093774 L18.6170966,32.8093774 Z M18.6170966,24.6070331 L14.3497245,24.6070331 L14.3497245,20.5058609 L18.6170966,20.5058609 L18.6170966,24.6070331 L18.6170966,24.6070331 Z M18.6170966,16.4046887 L14.3497245,16.4046887 L14.3497245,12.3035165 L18.6170966,12.3035165 L18.6170966,16.4046887 L18.6170966,16.4046887 Z M18.6170966,8.20234436 L14.3497245,8.20234436 L14.3497245,4.10117218 L18.6170966,4.10117218 L18.6170966,8.20234436 L18.6170966,8.20234436 Z M39.9539571,32.8093774 L22.8844687,32.8093774 L22.8844687,28.7082053 L27.1518408,28.7082053 L27.1518408,24.6070331 L22.8844687,24.6070331 L22.8844687,20.5058609 L27.1518408,20.5058609 L27.1518408,16.4046887 L22.8844687,16.4046887 L22.8844687,12.3035165 L39.9539571,12.3035165 L39.9539571,32.8093774 L39.9539571,32.8093774 Z M35.686585,16.4046887 L31.4192129,16.4046887 L31.4192129,20.5058609 L35.686585,20.5058609 L35.686585,16.4046887 L35.686585,16.4046887 Z M35.686585,24.6070331 L31.4192129,24.6070331 L31.4192129,28.7082053 L35.686585,28.7082053 L35.686585,24.6070331 L35.686585,24.6070331 Z" id="Shape"></path>
                    <path d="M459.309963,8.20234436 L459.309963,0 L437.973102,0 L437.973102,36.9105496 L480.646823,36.9105496 L480.646823,8.20234436 L459.309963,8.20234436 L459.309963,8.20234436 Z M446.507846,32.8093774 L442.240474,32.8093774 L442.240474,28.7082053 L446.507846,28.7082053 L446.507846,32.8093774 L446.507846,32.8093774 Z M446.507846,24.6070331 L442.240474,24.6070331 L442.240474,20.5058609 L446.507846,20.5058609 L446.507846,24.6070331 L446.507846,24.6070331 Z M446.507846,16.4046887 L442.240474,16.4046887 L442.240474,12.3035165 L446.507846,12.3035165 L446.507846,16.4046887 L446.507846,16.4046887 Z M446.507846,8.20234436 L442.240474,8.20234436 L442.240474,4.10117218 L446.507846,4.10117218 L446.507846,8.20234436 L446.507846,8.20234436 Z M455.042591,32.8093774 L450.775218,32.8093774 L450.775218,28.7082053 L455.042591,28.7082053 L455.042591,32.8093774 L455.042591,32.8093774 Z M455.042591,24.6070331 L450.775218,24.6070331 L450.775218,20.5058609 L455.042591,20.5058609 L455.042591,24.6070331 L455.042591,24.6070331 Z M455.042591,16.4046887 L450.775218,16.4046887 L450.775218,12.3035165 L455.042591,12.3035165 L455.042591,16.4046887 L455.042591,16.4046887 Z M455.042591,8.20234436 L450.775218,8.20234436 L450.775218,4.10117218 L455.042591,4.10117218 L455.042591,8.20234436 L455.042591,8.20234436 Z M476.379451,32.8093774 L459.309963,32.8093774 L459.309963,28.7082053 L463.577335,28.7082053 L463.577335,24.6070331 L459.309963,24.6070331 L459.309963,20.5058609 L463.577335,20.5058609 L463.577335,16.4046887 L459.309963,16.4046887 L459.309963,12.3035165 L476.379451,12.3035165 L476.379451,32.8093774 L476.379451,32.8093774 Z M472.112079,16.4046887 L467.844707,16.4046887 L467.844707,20.5058609 L472.112079,20.5058609 L472.112079,16.4046887 L472.112079,16.4046887 Z M472.112079,24.6070331 L467.844707,24.6070331 L467.844707,28.7082053 L472.112079,28.7082053 L472.112079,24.6070331 L472.112079,24.6070331 Z" id="Shape-Copy-19"></path>
                    <path d="M886.449808,8.20234436 L886.449808,0 L865.112947,0 L865.112947,36.9105496 L907.786668,36.9105496 L907.786668,8.20234436 L886.449808,8.20234436 L886.449808,8.20234436 Z M873.647691,32.8093774 L869.380319,32.8093774 L869.380319,28.7082053 L873.647691,28.7082053 L873.647691,32.8093774 L873.647691,32.8093774 Z M873.647691,24.6070331 L869.380319,24.6070331 L869.380319,20.5058609 L873.647691,20.5058609 L873.647691,24.6070331 L873.647691,24.6070331 Z M873.647691,16.4046887 L869.380319,16.4046887 L869.380319,12.3035165 L873.647691,12.3035165 L873.647691,16.4046887 L873.647691,16.4046887 Z M873.647691,8.20234436 L869.380319,8.20234436 L869.380319,4.10117218 L873.647691,4.10117218 L873.647691,8.20234436 L873.647691,8.20234436 Z M882.182436,32.8093774 L877.915064,32.8093774 L877.915064,28.7082053 L882.182436,28.7082053 L882.182436,32.8093774 L882.182436,32.8093774 Z M882.182436,24.6070331 L877.915064,24.6070331 L877.915064,20.5058609 L882.182436,20.5058609 L882.182436,24.6070331 L882.182436,24.6070331 Z M882.182436,16.4046887 L877.915064,16.4046887 L877.915064,12.3035165 L882.182436,12.3035165 L882.182436,16.4046887 L882.182436,16.4046887 Z M882.182436,8.20234436 L877.915064,8.20234436 L877.915064,4.10117218 L882.182436,4.10117218 L882.182436,8.20234436 L882.182436,8.20234436 Z M903.519296,32.8093774 L886.449808,32.8093774 L886.449808,28.7082053 L890.71718,28.7082053 L890.71718,24.6070331 L886.449808,24.6070331 L886.449808,20.5058609 L890.71718,20.5058609 L890.71718,16.4046887 L886.449808,16.4046887 L886.449808,12.3035165 L903.519296,12.3035165 L903.519296,32.8093774 L903.519296,32.8093774 Z M899.251924,16.4046887 L894.984552,16.4046887 L894.984552,20.5058609 L899.251924,20.5058609 L899.251924,16.4046887 L899.251924,16.4046887 Z M899.251924,24.6070331 L894.984552,24.6070331 L894.984552,28.7082053 L899.251924,28.7082053 L899.251924,24.6070331 L899.251924,24.6070331 Z" id="Shape-Copy-37"></path>
                </g>
                <path d="M243.81698,216.131666 L231.014863,216.131666 L231.014863,228.435182 L243.81698,228.435182 L243.81698,216.131666 L243.81698,216.131666 Z M239.549608,224.33401 L235.282235,224.33401 L235.282235,220.232838 L239.549608,220.232838 L239.549608,224.33401 L239.549608,224.33401 Z M256.619096,220.232838 L256.619096,216.131666 L252.351724,216.131666 L252.351724,212.030494 C252.351724,209.774849 250.431406,207.929321 248.084352,207.929321 L243.81698,207.929321 L243.81698,203.828149 L239.549608,203.828149 L239.549608,207.929321 L235.282235,207.929321 L235.282235,203.828149 L231.014863,203.828149 L231.014863,207.929321 L226.747491,207.929321 C224.400437,207.929321 222.480119,209.774849 222.480119,212.030494 L222.480119,216.131666 L218.212747,216.131666 L218.212747,220.232838 L222.480119,220.232838 L222.480119,224.33401 L218.212747,224.33401 L218.212747,228.435182 L222.480119,228.435182 L222.480119,232.536355 C222.480119,234.791999 224.400437,236.637527 226.747491,236.637527 L231.014863,236.637527 L231.014863,240.738699 L235.282235,240.738699 L235.282235,236.637527 L239.549608,236.637527 L239.549608,240.738699 L243.81698,240.738699 L243.81698,236.637527 L248.084352,236.637527 C250.431406,236.637527 252.351724,234.791999 252.351724,232.536355 L252.351724,228.435182 L256.619096,228.435182 L256.619096,224.33401 L252.351724,224.33401 L252.351724,220.232838 L256.619096,220.232838 L256.619096,220.232838 Z M248.084352,232.536355 L226.747491,232.536355 L226.747491,212.030494 L248.084352,212.030494 L248.084352,232.536355 L248.084352,232.536355 Z" id="Shape"></path>
                <path d="M680.242474,216.131666 L667.440357,216.131666 L667.440357,228.435182 L680.242474,228.435182 L680.242474,216.131666 L680.242474,216.131666 Z M675.975101,224.33401 L671.707729,224.33401 L671.707729,220.232838 L675.975101,220.232838 L675.975101,224.33401 L675.975101,224.33401 Z M693.04459,220.232838 L693.04459,216.131666 L688.777218,216.131666 L688.777218,212.030494 C688.777218,209.774849 686.8569,207.929321 684.509846,207.929321 L680.242474,207.929321 L680.242474,203.828149 L675.975101,203.828149 L675.975101,207.929321 L671.707729,207.929321 L671.707729,203.828149 L667.440357,203.828149 L667.440357,207.929321 L663.172985,207.929321 C660.825931,207.929321 658.905613,209.774849 658.905613,212.030494 L658.905613,216.131666 L654.638241,216.131666 L654.638241,220.232838 L658.905613,220.232838 L658.905613,224.33401 L654.638241,224.33401 L654.638241,228.435182 L658.905613,228.435182 L658.905613,232.536355 C658.905613,234.791999 660.825931,236.637527 663.172985,236.637527 L667.440357,236.637527 L667.440357,240.738699 L671.707729,240.738699 L671.707729,236.637527 L675.975101,236.637527 L675.975101,240.738699 L680.242474,240.738699 L680.242474,236.637527 L684.509846,236.637527 C686.8569,236.637527 688.777218,234.791999 688.777218,232.536355 L688.777218,228.435182 L693.04459,228.435182 L693.04459,224.33401 L688.777218,224.33401 L688.777218,220.232838 L693.04459,220.232838 L693.04459,220.232838 Z M684.509846,232.536355 L663.172985,232.536355 L663.172985,212.030494 L684.509846,212.030494 L684.509846,232.536355 L684.509846,232.536355 Z" id="Shape-Copy-21"></path>
                <path d="M1107.38232,216.131666 L1094.5802,216.131666 L1094.5802,228.435182 L1107.38232,228.435182 L1107.38232,216.131666 L1107.38232,216.131666 Z M1103.11495,224.33401 L1098.84757,224.33401 L1098.84757,220.232838 L1103.11495,220.232838 L1103.11495,224.33401 L1103.11495,224.33401 Z M1120.18444,220.232838 L1120.18444,216.131666 L1115.91706,216.131666 L1115.91706,212.030494 C1115.91706,209.774849 1113.99675,207.929321 1111.64969,207.929321 L1107.38232,207.929321 L1107.38232,203.828149 L1103.11495,203.828149 L1103.11495,207.929321 L1098.84757,207.929321 L1098.84757,203.828149 L1094.5802,203.828149 L1094.5802,207.929321 L1090.31283,207.929321 C1087.96578,207.929321 1086.04546,209.774849 1086.04546,212.030494 L1086.04546,216.131666 L1081.77809,216.131666 L1081.77809,220.232838 L1086.04546,220.232838 L1086.04546,224.33401 L1081.77809,224.33401 L1081.77809,228.435182 L1086.04546,228.435182 L1086.04546,232.536355 C1086.04546,234.791999 1087.96578,236.637527 1090.31283,236.637527 L1094.5802,236.637527 L1094.5802,240.738699 L1098.84757,240.738699 L1098.84757,236.637527 L1103.11495,236.637527 L1103.11495,240.738699 L1107.38232,240.738699 L1107.38232,236.637527 L1111.64969,236.637527 C1113.99675,236.637527 1115.91706,234.791999 1115.91706,232.536355 L1115.91706,228.435182 L1120.18444,228.435182 L1120.18444,224.33401 L1115.91706,224.33401 L1115.91706,220.232838 L1120.18444,220.232838 L1120.18444,220.232838 Z M1111.64969,232.536355 L1090.31283,232.536355 L1090.31283,212.030494 L1111.64969,212.030494 L1111.64969,232.536355 L1111.64969,232.536355 Z" id="Shape-Copy-39"></path>
                <path d="M242.269371,625.275761 L229.467255,625.275761 L229.467255,637.579278 L242.269371,637.579278 L242.269371,625.275761 L242.269371,625.275761 Z M238.001999,633.478105 L233.734627,633.478105 L233.734627,629.376933 L238.001999,629.376933 L238.001999,633.478105 L238.001999,633.478105 Z M255.071488,629.376933 L255.071488,625.275761 L250.804116,625.275761 L250.804116,621.174589 C250.804116,618.918944 248.883798,617.073417 246.536744,617.073417 L242.269371,617.073417 L242.269371,612.972244 L238.001999,612.972244 L238.001999,617.073417 L233.734627,617.073417 L233.734627,612.972244 L229.467255,612.972244 L229.467255,617.073417 L225.199883,617.073417 C222.852828,617.073417 220.932511,618.918944 220.932511,621.174589 L220.932511,625.275761 L216.665139,625.275761 L216.665139,629.376933 L220.932511,629.376933 L220.932511,633.478105 L216.665139,633.478105 L216.665139,637.579278 L220.932511,637.579278 L220.932511,641.68045 C220.932511,643.936094 222.852828,645.781622 225.199883,645.781622 L229.467255,645.781622 L229.467255,649.882794 L233.734627,649.882794 L233.734627,645.781622 L238.001999,645.781622 L238.001999,649.882794 L242.269371,649.882794 L242.269371,645.781622 L246.536744,645.781622 C248.883798,645.781622 250.804116,643.936094 250.804116,641.68045 L250.804116,637.579278 L255.071488,637.579278 L255.071488,633.478105 L250.804116,633.478105 L250.804116,629.376933 L255.071488,629.376933 L255.071488,629.376933 Z M246.536744,641.68045 L225.199883,641.68045 L225.199883,621.174589 L246.536744,621.174589 L246.536744,641.68045 L246.536744,641.68045 Z" id="Shape-Copy-7"></path>
                <path d="M678.694865,625.275761 L665.892749,625.275761 L665.892749,637.579278 L678.694865,637.579278 L678.694865,625.275761 L678.694865,625.275761 Z M674.427493,633.478105 L670.160121,633.478105 L670.160121,629.376933 L674.427493,629.376933 L674.427493,633.478105 L674.427493,633.478105 Z M691.496982,629.376933 L691.496982,625.275761 L687.22961,625.275761 L687.22961,621.174589 C687.22961,618.918944 685.309292,617.073417 682.962238,617.073417 L678.694865,617.073417 L678.694865,612.972244 L674.427493,612.972244 L674.427493,617.073417 L670.160121,617.073417 L670.160121,612.972244 L665.892749,612.972244 L665.892749,617.073417 L661.625377,617.073417 C659.278322,617.073417 657.358005,618.918944 657.358005,621.174589 L657.358005,625.275761 L653.090633,625.275761 L653.090633,629.376933 L657.358005,629.376933 L657.358005,633.478105 L653.090633,633.478105 L653.090633,637.579278 L657.358005,637.579278 L657.358005,641.68045 C657.358005,643.936094 659.278322,645.781622 661.625377,645.781622 L665.892749,645.781622 L665.892749,649.882794 L670.160121,649.882794 L670.160121,645.781622 L674.427493,645.781622 L674.427493,649.882794 L678.694865,649.882794 L678.694865,645.781622 L682.962238,645.781622 C685.309292,645.781622 687.22961,643.936094 687.22961,641.68045 L687.22961,637.579278 L691.496982,637.579278 L691.496982,633.478105 L687.22961,633.478105 L687.22961,629.376933 L691.496982,629.376933 L691.496982,629.376933 Z M682.962238,641.68045 L661.625377,641.68045 L661.625377,621.174589 L682.962238,621.174589 L682.962238,641.68045 L682.962238,641.68045 Z" id="Shape-Copy-22"></path>
                <path d="M1105.83471,625.275761 L1093.03259,625.275761 L1093.03259,637.579278 L1105.83471,637.579278 L1105.83471,625.275761 L1105.83471,625.275761 Z M1101.56734,633.478105 L1097.29997,633.478105 L1097.29997,629.376933 L1101.56734,629.376933 L1101.56734,633.478105 L1101.56734,633.478105 Z M1118.63683,629.376933 L1118.63683,625.275761 L1114.36945,625.275761 L1114.36945,621.174589 C1114.36945,618.918944 1112.44914,617.073417 1110.10208,617.073417 L1105.83471,617.073417 L1105.83471,612.972244 L1101.56734,612.972244 L1101.56734,617.073417 L1097.29997,617.073417 L1097.29997,612.972244 L1093.03259,612.972244 L1093.03259,617.073417 L1088.76522,617.073417 C1086.41817,617.073417 1084.49785,618.918944 1084.49785,621.174589 L1084.49785,625.275761 L1080.23048,625.275761 L1080.23048,629.376933 L1084.49785,629.376933 L1084.49785,633.478105 L1080.23048,633.478105 L1080.23048,637.579278 L1084.49785,637.579278 L1084.49785,641.68045 C1084.49785,643.936094 1086.41817,645.781622 1088.76522,645.781622 L1093.03259,645.781622 L1093.03259,649.882794 L1097.29997,649.882794 L1097.29997,645.781622 L1101.56734,645.781622 L1101.56734,649.882794 L1105.83471,649.882794 L1105.83471,645.781622 L1110.10208,645.781622 C1112.44914,645.781622 1114.36945,643.936094 1114.36945,641.68045 L1114.36945,637.579278 L1118.63683,637.579278 L1118.63683,633.478105 L1114.36945,633.478105 L1114.36945,629.376933 L1118.63683,629.376933 L1118.63683,629.376933 Z M1110.10208,641.68045 L1088.76522,641.68045 L1088.76522,621.174589 L1110.10208,621.174589 L1110.10208,641.68045 L1110.10208,641.68045 Z" id="Shape-Copy-40"></path>
                <path d="M26.3551372,439.540669 L26.3551372,427.237152 L34.8898815,427.237152 L34.8898815,439.540669 L45.5583117,439.540669 L45.5583117,423.13598 L51.9593699,423.13598 L30.6225093,404.680705 L9.28564881,423.13598 L15.686707,423.13598 L15.686707,439.540669 L26.3551372,439.540669 Z" id="Shape"></path>
                <path d="M222.104667,25.3383565 L222.104667,33.5407009 L237.040469,41.3739398 L251.976272,33.5407009 L251.976272,25.3383565 L237.040469,33.1715954 L222.104667,25.3383565 L222.104667,25.3383565 Z M237.040469,4.46339013 L213.569923,16.7669067 L237.040469,29.0704232 L256.243644,19.0020455 L256.243644,33.1715954 L260.511016,33.1715954 L260.511016,16.7669067 L237.040469,4.46339013 L237.040469,4.46339013 Z" id="Shape"></path>
                <path d="M658.530161,25.3383565 L658.530161,33.5407009 L673.465963,41.3739398 L688.401766,33.5407009 L688.401766,25.3383565 L673.465963,33.1715954 L658.530161,25.3383565 L658.530161,25.3383565 Z M673.465963,4.46339013 L649.995417,16.7669067 L673.465963,29.0704232 L692.669138,19.0020455 L692.669138,33.1715954 L696.93651,33.1715954 L696.93651,16.7669067 L673.465963,4.46339013 L673.465963,4.46339013 Z" id="Shape-Copy-23"></path>
                <path d="M1085.67001,25.3383565 L1085.67001,33.5407009 L1100.60581,41.3739398 L1115.54161,33.5407009 L1115.54161,25.3383565 L1100.60581,33.1715954 L1085.67001,25.3383565 L1085.67001,25.3383565 Z M1100.60581,4.46339013 L1077.13526,16.7669067 L1100.60581,29.0704232 L1119.80898,19.0020455 L1119.80898,33.1715954 L1124.07635,33.1715954 L1124.07635,16.7669067 L1100.60581,4.46339013 L1100.60581,4.46339013 Z" id="Shape-Copy-41"></path>
                <path d="M459.566387,4.46339013 L433.962155,4.46339013 C431.6151,4.46339013 429.694782,6.30891761 429.694782,8.56456231 L429.694782,33.1715954 C429.694782,35.4272401 431.6151,37.2727676 433.962155,37.2727676 L459.566387,37.2727676 C461.913442,37.2727676 463.833759,35.4272401 463.833759,33.1715954 L463.833759,8.56456231 C463.833759,6.30891761 461.913442,4.46339013 459.566387,4.46339013 L459.566387,4.46339013 Z M455.299015,14.7163206 L448.897957,14.7163206 L448.897957,25.9945441 C448.897957,28.8243529 446.508229,31.1210093 443.563742,31.1210093 C440.619255,31.1210093 438.229527,28.8243529 438.229527,25.9945441 C438.229527,23.1647353 440.619255,20.8680789 443.563742,20.8680789 C444.779943,20.8680789 445.868123,21.2576902 446.764271,21.9138778 L446.764271,10.6151484 L455.299015,10.6151484 L455.299015,14.7163206 L455.299015,14.7163206 Z M425.42741,12.6657345 L421.160038,12.6657345 L421.160038,41.3739398 C421.160038,43.6295845 423.080356,45.4751119 425.42741,45.4751119 L455.299015,45.4751119 L455.299015,41.3739398 L425.42741,41.3739398 L425.42741,12.6657345 L425.42741,12.6657345 Z" id="Shape"></path>
                <path d="M895.781256,4.46339013 L870.177023,4.46339013 C867.829968,4.46339013 865.909651,6.30891761 865.909651,8.56456231 L865.909651,33.1715954 C865.909651,35.4272401 867.829968,37.2727676 870.177023,37.2727676 L895.781256,37.2727676 C898.12831,37.2727676 900.048628,35.4272401 900.048628,33.1715954 L900.048628,8.56456231 C900.048628,6.30891761 898.12831,4.46339013 895.781256,4.46339013 L895.781256,4.46339013 Z M891.513883,14.7163206 L885.112825,14.7163206 L885.112825,25.9945441 C885.112825,28.8243529 882.723097,31.1210093 879.77861,31.1210093 C876.834123,31.1210093 874.444395,28.8243529 874.444395,25.9945441 C874.444395,23.1647353 876.834123,20.8680789 879.77861,20.8680789 C880.994811,20.8680789 882.082991,21.2576902 882.979139,21.9138778 L882.979139,10.6151484 L891.513883,10.6151484 L891.513883,14.7163206 L891.513883,14.7163206 Z M861.642279,12.6657345 L857.374907,12.6657345 L857.374907,41.3739398 C857.374907,43.6295845 859.295224,45.4751119 861.642279,45.4751119 L891.513883,45.4751119 L891.513883,41.3739398 L861.642279,41.3739398 L861.642279,12.6657345 L861.642279,12.6657345 Z" id="Shape-Copy-24"></path>
                <path d="M455.536464,417.505999 L446.190919,404.054155 C445.785518,403.47999 445.102739,403.192908 444.419959,403.192908 C443.73718,403.192908 443.0544,403.47999 442.649,404.07466 L433.303455,417.505999 L423.083099,417.505999 C421.909571,417.505999 420.949413,418.428763 420.949413,419.556585 C420.949413,419.741138 420.970749,419.925691 421.03476,420.110244 L426.454323,439.119177 C426.94507,440.841669 428.588009,442.113032 430.551,442.113032 L458.288919,442.113032 C460.25191,442.113032 461.894848,440.841669 462.406933,439.119177 L467.826495,420.110244 L467.890506,419.556585 C467.890506,418.428763 466.930347,417.505999 465.75682,417.505999 L455.536464,417.505999 L455.536464,417.505999 Z M438.018901,417.505999 L444.419959,408.48342 L450.821017,417.505999 L438.018901,417.505999 L438.018901,417.505999 Z M444.419959,433.910688 C442.072905,433.910688 440.152587,432.065161 440.152587,429.809516 C440.152587,427.553871 442.072905,425.708344 444.419959,425.708344 C446.767014,425.708344 448.687331,427.553871 448.687331,429.809516 C448.687331,432.065161 446.767014,433.910688 444.419959,433.910688 L444.419959,433.910688 Z" id="Shape"></path>
                <path d="M891.961958,417.505999 L882.616413,404.054155 C882.211012,403.47999 881.528233,403.192908 880.845453,403.192908 C880.162674,403.192908 879.479894,403.47999 879.074494,404.07466 L869.728949,417.505999 L859.508593,417.505999 C858.335065,417.505999 857.374907,418.428763 857.374907,419.556585 C857.374907,419.741138 857.396243,419.925691 857.460254,420.110244 L862.879817,439.119177 C863.370564,440.841669 865.013503,442.113032 866.976494,442.113032 L894.714413,442.113032 C896.677404,442.113032 898.320342,440.841669 898.832427,439.119177 L904.251989,420.110244 L904.316,419.556585 C904.316,418.428763 903.355841,417.505999 902.182314,417.505999 L891.961958,417.505999 L891.961958,417.505999 Z M874.444395,417.505999 L880.845453,408.48342 L887.246511,417.505999 L874.444395,417.505999 L874.444395,417.505999 Z M880.845453,433.910688 C878.498399,433.910688 876.578081,432.065161 876.578081,429.809516 C876.578081,427.553871 878.498399,425.708344 880.845453,425.708344 C883.192508,425.708344 885.112825,427.553871 885.112825,429.809516 C885.112825,432.065161 883.192508,433.910688 880.845453,433.910688 L880.845453,433.910688 Z" id="Shape-Copy-25"></path>
                <path d="M255.791989,416.996129 L246.076685,407.656299 L235.445298,407.656299 L235.445298,412.29145 L244.099874,412.29145 L248.921365,416.926602 L220.980825,416.926602 C214.230738,416.926602 208.927098,422.025268 208.927098,428.51448 C208.927098,435.003693 214.230738,440.102359 220.980825,440.102359 C226.911259,440.102359 231.708642,436.185656 232.793478,430.832056 L236.771208,430.832056 L243.448973,424.412371 C242.942716,425.663862 242.677534,427.054408 242.677534,428.51448 C242.677534,435.003693 247.981174,440.102359 254.731261,440.102359 C261.481349,440.102359 266.784988,435.003693 266.784988,428.51448 C266.784988,422.372905 262.03582,417.459644 255.791989,416.996129 L255.791989,416.996129 Z M227.779127,430.832056 C226.766614,433.497268 224.066579,435.467208 220.980825,435.467208 C217.05131,435.467208 213.748589,432.292129 213.748589,428.51448 C213.748589,424.736832 217.05131,421.561753 220.980825,421.561753 C224.066579,421.561753 226.766614,423.531693 227.779127,426.196905 L220.980825,426.196905 L220.980825,430.832056 L227.779127,430.832056 L227.779127,430.832056 Z M254.731261,435.467208 C250.729424,435.467208 247.499025,432.361656 247.499025,428.51448 C247.499025,424.667305 250.729424,421.561753 254.731261,421.561753 C258.733099,421.561753 261.963498,424.667305 261.963498,428.51448 C261.963498,432.361656 258.733099,435.467208 254.731261,435.467208 L254.731261,435.467208 Z" id="Shape"></path>
                <path d="M692.217483,416.996129 L682.502179,407.656299 L671.870792,407.656299 L671.870792,412.29145 L680.525368,412.29145 L685.346859,416.926602 L657.406319,416.926602 C650.656232,416.926602 645.352592,422.025268 645.352592,428.51448 C645.352592,435.003693 650.656232,440.102359 657.406319,440.102359 C663.336753,440.102359 668.134136,436.185656 669.218972,430.832056 L673.196702,430.832056 L679.874467,424.412371 C679.36821,425.663862 679.103028,427.054408 679.103028,428.51448 C679.103028,435.003693 684.406668,440.102359 691.156755,440.102359 C697.906843,440.102359 703.210482,435.003693 703.210482,428.51448 C703.210482,422.372905 698.461314,417.459644 692.217483,416.996129 L692.217483,416.996129 Z M664.204621,430.832056 C663.192108,433.497268 660.492073,435.467208 657.406319,435.467208 C653.476804,435.467208 650.174083,432.292129 650.174083,428.51448 C650.174083,424.736832 653.476804,421.561753 657.406319,421.561753 C660.492073,421.561753 663.192108,423.531693 664.204621,426.196905 L657.406319,426.196905 L657.406319,430.832056 L664.204621,430.832056 L664.204621,430.832056 Z M691.156755,435.467208 C687.154918,435.467208 683.924519,432.361656 683.924519,428.51448 C683.924519,424.667305 687.154918,421.561753 691.156755,421.561753 C695.158593,421.561753 698.388992,424.667305 698.388992,428.51448 C698.388992,432.361656 695.158593,435.467208 691.156755,435.467208 L691.156755,435.467208 Z" id="Shape-Copy-27"></path>
                <path d="M1119.35733,416.996129 L1109.64202,407.656299 L1099.01064,407.656299 L1099.01064,412.29145 L1107.66521,412.29145 L1112.4867,416.926602 L1084.54616,416.926602 C1077.79608,416.926602 1072.49244,422.025268 1072.49244,428.51448 C1072.49244,435.003693 1077.79608,440.102359 1084.54616,440.102359 C1090.4766,440.102359 1095.27398,436.185656 1096.35882,430.832056 L1100.33655,430.832056 L1107.01431,424.412371 C1106.50806,425.663862 1106.24287,427.054408 1106.24287,428.51448 C1106.24287,435.003693 1111.54651,440.102359 1118.2966,440.102359 C1125.04669,440.102359 1130.35033,435.003693 1130.35033,428.51448 C1130.35033,422.372905 1125.60116,417.459644 1119.35733,416.996129 L1119.35733,416.996129 Z M1091.34447,430.832056 C1090.33195,433.497268 1087.63192,435.467208 1084.54616,435.467208 C1080.61665,435.467208 1077.31393,432.292129 1077.31393,428.51448 C1077.31393,424.736832 1080.61665,421.561753 1084.54616,421.561753 C1087.63192,421.561753 1090.33195,423.531693 1091.34447,426.196905 L1084.54616,426.196905 L1084.54616,430.832056 L1091.34447,430.832056 L1091.34447,430.832056 Z M1118.2966,435.467208 C1114.29476,435.467208 1111.06436,432.361656 1111.06436,428.51448 C1111.06436,424.667305 1114.29476,421.561753 1118.2966,421.561753 C1122.29844,421.561753 1125.52884,424.667305 1125.52884,428.51448 C1125.52884,432.361656 1122.29844,435.467208 1118.2966,435.467208 L1118.2966,435.467208 Z" id="Shape-Copy-45"></path>
            </g>
        </g>
    </g>
</svg>