<?xml version="1.0" encoding="utf-8"?>
<!-- Generator: Adobe Illustrator 19.1.0, SVG Export Plug-In . SVG Version: 6.00 Build 0)  -->
<svg version="1.1" id="Calque_1" xmlns="http://www.w3.org/2000/svg" xmlns:xlink="http://www.w3.org/1999/xlink" x="0px" y="0px"
	 viewBox="0 0 255 318.9" style="enable-background:new 0 0 255 318.9;" xml:space="preserve">
<style type="text/css">
	.st0{fill:#FFFFFF;}
	.st1{fill:#405663;}
	.st2{fill:#68C3EF;}
</style>
<g>
	<path class="st0" d="M249.5,316.4H5.5c-1.7,0-3-1.4-3-3V5.5c0-1.7,1.4-3,3-3h224.9h19.1c1.6,0,3,1.3,3,3v307.9
		C252.5,315,251.1,316.4,249.5,316.4z"/>
	<path class="st1" d="M249.5,318.9H5.5c-3,0-5.5-2.5-5.5-5.5V5.5C0,2.5,2.5,0,5.5,0h244c3,0,5.5,2.5,5.5,5.5v307.9
		C255,316.4,252.5,318.9,249.5,318.9z M5.5,5C5.2,5,5,5.2,5,5.5v307.9c0,0.3,0.2,0.5,0.5,0.5h244c0.3,0,0.5-0.2,0.5-0.5V5.5
		c0-0.3-0.2-0.5-0.5-0.5H5.5z"/>
</g>
<g>
	<path class="st1" d="M26.6,138.9c22.4,0,44.7,0,67.1,0c35.7,0,71.4,0,107.1,0c8.3,0,16.5,0,24.8,0c3.2,0,3.2-5,0-5
		c-22.4,0-44.7,0-67.1,0c-35.7,0-71.4,0-107.1,0c-8.3,0-16.5,0-24.8,0C23.4,133.9,23.4,138.9,26.6,138.9L26.6,138.9z"/>
</g>
<g>
	<path class="st1" d="M26.6,161.5c22.4,0,44.7,0,67.1,0c35.7,0,71.4,0,107.1,0c8.3,0,16.5,0,24.8,0c3.2,0,3.2-5,0-5
		c-22.4,0-44.7,0-67.1,0c-35.7,0-71.4,0-107.1,0c-8.3,0-16.5,0-24.8,0C23.4,156.5,23.4,161.5,26.6,161.5L26.6,161.5z"/>
</g>
<g>
	<path class="st1" d="M26.6,184.1c22.4,0,44.7,0,67.1,0c35.7,0,71.4,0,107.1,0c8.3,0,16.5,0,24.8,0c3.2,0,3.2-5,0-5
		c-22.4,0-44.7,0-67.1,0c-35.7,0-71.4,0-107.1,0c-8.3,0-16.5,0-24.8,0C23.4,179.1,23.4,184.1,26.6,184.1L26.6,184.1z"/>
</g>
<g>
	<path class="st1" d="M26.6,206.7c22.4,0,44.7,0,67.1,0c35.7,0,71.4,0,107.1,0c8.3,0,16.5,0,24.8,0c3.2,0,3.2-5,0-5
		c-22.4,0-44.7,0-67.1,0c-35.7,0-71.4,0-107.1,0c-8.3,0-16.5,0-24.8,0C23.4,201.7,23.4,206.7,26.6,206.7L26.6,206.7z"/>
</g>
<g>
	<path class="st1" d="M160.6,282.2c21.7,0,43.3,0,65,0c3.2,0,3.2-5,0-5c-21.7,0-43.3,0-65,0C157.4,277.2,157.4,282.2,160.6,282.2
		L160.6,282.2z"/>
</g>
<g>
	<path class="st1" d="M68.2,62v18.9h-8.5V31.1h19.8c5.6,0,10,1.4,13.2,4.3s4.8,6.6,4.8,11.2c0,4.7-1.6,8.4-4.8,11.2
		c-3.2,2.8-7.6,4.2-13.2,4.2H68.2z M68.2,55.3h11.4c3.1,0,5.5-0.8,7.1-2.5c1.6-1.6,2.4-3.7,2.4-6.3s-0.8-4.6-2.4-6.3
		c-1.6-1.7-3.9-2.5-7.1-2.5H68.2V55.3z"/>
	<path class="st1" d="M111.9,80.8V31.1h16.5c6.4,0,11.7,2,15.7,5.9c4,3.9,6,9,6,15.2v7.6c0,6.2-2,11.3-6,15.2
		c-4,3.9-9.3,5.9-15.7,5.9H111.9z M120.4,37.7v36.4h7.7c4.2,0,7.5-1.3,9.9-4c2.4-2.7,3.6-6.2,3.6-10.4v-7.6c0-4.2-1.2-7.7-3.6-10.3
		c-2.4-2.7-5.7-4-9.9-4H120.4z"/>
	<path class="st1" d="M195.6,59.6h-22.2v21.2h-8.5V31.1h34.3v6.7h-25.8v15.2h22.2V59.6z"/>
</g>
<g>
	<g>
		<polyline class="st0" points="28.8,62.5 5.9,100.3 38.6,100.3 53.7,72.2 		"/>
		<polygon class="st2" points="40.3,103.1 0.9,103.1 26.4,61 31.3,64 11,97.4 36.9,97.4 51.2,70.8 56.3,73.5 		"/>
	</g>
	<g>
		<polyline class="st0" points="75.2,62.5 93.7,100.3 61.3,100.3 50.6,78.9 		"/>
		<polygon class="st2" points="98.3,103.1 59.5,103.1 48.1,80.2 53.2,77.6 63.1,97.4 89.1,97.4 72.6,63.8 77.7,61.3 		"/>
	</g>
	<g>
		<circle class="st0" cx="52" cy="39.5" r="33.8"/>
		<path class="st2" d="M52,76.3c-20.3,0-36.8-16.5-36.8-36.8S31.7,2.7,52,2.7s36.8,16.5,36.8,36.8S72.3,76.3,52,76.3z M52,8.6
			c-17,0-30.9,13.8-30.9,30.9S35,70.4,52,70.4s30.9-13.8,30.9-30.9S69,8.6,52,8.6z"/>
	</g>
	<g>
		<circle class="st2" cx="52" cy="39.5" r="10.8"/>
	</g>
</g>
</svg>
