<?xml version="1.0" encoding="UTF-8" standalone="no"?>
<svg width="464px" height="174px" viewBox="0 0 464 174" version="1.1" xmlns="http://www.w3.org/2000/svg" xmlns:xlink="http://www.w3.org/1999/xlink">
    <!-- Generator: Sketch 3.8.3 (29802) - http://www.bohemiancoding.com/sketch -->
    <title>Plane (L)</title>
    <desc>Created with Sketch.</desc>
    <defs></defs>
    <g id="Symbols" stroke="none" stroke-width="1" fill="none" fill-rule="evenodd">
        <g id="Sub-header" transform="translate(-281.000000, -97.000000)">
            <g id="Group-4" transform="translate(-22.000000, 38.000000)">
                <g id="Plane-(L)" transform="translate(302.000000, 59.000000)">
                    <path d="M371.09351,61.2719966 C354.568581,79.7904215 327.236667,87.84643 303.325136,81.2471854 C295.290352,79.02937 287.29784,74.9627562 282.850304,67.9061382 C278.402768,60.8495202 278.76394,50.3507219 285.331045,45.2126961 C291.921883,40.0553657 302.498964,42.4632584 307.50272,49.1753614 C312.506476,55.8867219 312.399682,65.4967605 308.74717,73.0315416 C305.094658,80.5663227 298.413342,86.2463657 291.178031,90.4503399 C273.09717,100.955821 250.418964,103.166954 230.653868,96.3516446 C224.842481,94.3476661 219.072624,91.4356232 215.36894,86.5247991 C211.665256,81.6139751 210.586931,74.317533 214.189012,69.3317176 C218.30949,63.627915 227.143749,63.0242712 233.225089,66.5577777 C239.306428,70.0912841 242.998246,76.6786489 245.237218,83.3521425 C253.885328,109.132855 243.365352,139.458344 222.050256,156.318048 C200.735902,173.177752 170.438222,176.781795 144.792026,167.816979 C119.14583,158.852906 98.3268828,138.311198 86.4638206,113.845434 C80.9787488,102.534353 80.7276612,89.1930231 82.395256,77.5592412 C86.4638221,49.1753615 97.3007819,35.5820313 124.121094,35.5820312 C150.941407,35.5820312 154.85138,46.6353078 164.688386,63.9412463 C174.525391,81.2471848 168.884514,111.960997 164.68839,126.627387 C157.400423,152.097739 130.52906,169.036147 104.065591,169.112623 C77.602122,169.1891 52.5440359,154.692739 35.2559737,134.633649 C17.9679115,114.573816 7.61480144,89.4234773 0.370590909,63.9412455" id="Stroke-1" stroke="#D8E4E7" stroke-linecap="round" stroke-dasharray="5.669"></path>
                    <polygon id="Fill-3" fill="#E0F4FF" points="342.786134 33.1021021 367.402211 42.4299948 464.909818 0.742192275"></polygon>
                    <polygon id="Fill-6" fill="#9FDBFA" points="380.221749 45.1540395 464.909596 0.742043777 367.401988 42.4298464 371.093806 61.0069279"></polygon>
                    <path d="M401.231591,15.1331936 C395.189557,15.9833438 390.261447,21.9908245 390.24884,28.5254725 C390.236974,35.0541807 395.145801,39.6776614 401.187835,38.8275112 C407.23506,37.9766185 412.163911,31.9691378 412.176519,25.4404296 C412.188385,18.9050391 407.279557,14.2823009 401.231591,15.1331936" id="Fill-10" fill="#FF6E6E"></path>
                    <path d="M401.233742,13.9840429 C394.603598,14.9166094 389.198622,21.5047167 389.185273,28.6749356 C389.172665,35.8392146 394.555392,40.9096738 401.185536,39.9763648 C407.815679,39.0437983 413.226589,32.4549485 413.239938,25.2906695 C413.253287,18.1204506 407.863885,13.0514764 401.233742,13.9840429 M401.187761,38.8277339 C395.145727,39.6778841 390.2369,35.0544034 390.248766,28.5256953 C390.261373,21.9903047 395.190225,15.9835665 401.231517,15.1334163 C407.279483,14.2825236 412.188311,18.9052618 412.176445,25.4406524 C412.163837,31.9693605 407.234986,37.9768412 401.187761,38.8277339" id="Fill-12" fill="#FFFFFF"></path>
                    <path d="M403.113543,21.173715 L401.444141,21.4083416 L398.338208,24.5089768 L399.315672,25.6932472 L400.422921,24.5817408 C400.55938,24.4466077 400.79151,24.1763416 401.131175,23.7627751 L401.093352,24.8468094 L401.073328,25.8372901 L401.062203,31.8529382 L403.094261,31.5670798 L403.113543,21.173715" id="Fill-15" fill="#FFFFFF"></path>
                    <polygon id="Fill-18" fill="#5AC7FF" points="380.221749 45.1540395 371.093806 61.0069279 392.951031 47.6851854"></polygon>
                    <polygon id="Fill-20" fill="#E0F4FF" points="380.221749 45.1540395 416.387921 52.3450481 464.909596 0.742043777"></polygon>
                </g>
            </g>
        </g>
    </g>
</svg>